<svg width="800" height="626" viewBox="0 0 800 626" fill="none" xmlns="http://www.w3.org/2000/svg">
<g clip-path="url(#clip0_20_530)">
<path d="M340.893 45.8277C340.893 45.2709 340.937 44.9438 340.981 44.4931C341.025 44.0423 341.061 43.6888 341.114 43.291C341.22 42.4956 341.352 41.7178 341.502 40.9488C341.803 39.4109 342.174 37.8996 342.616 36.4147C343.517 33.453 344.701 30.585 346.152 27.8502C348.993 22.4251 352.884 17.6183 357.597 13.7086C359.92 11.8111 362.401 10.1167 365.013 8.64409C367.607 7.21381 370.307 5.98745 373.091 4.97611C378.595 2.99325 384.316 1.67291 390.132 1.04297C384.481 2.24231 378.992 4.10852 373.781 6.60239C371.218 7.83969 368.756 9.27592 366.418 10.8979C364.12 12.5169 361.964 14.3295 359.975 16.3159C356.065 20.2634 352.977 24.9468 350.889 30.0951C349.873 32.6172 349.101 35.2306 348.582 37.8996C348.335 39.2342 348.149 40.5511 348.025 41.8946C347.972 42.5574 347.928 43.2203 347.91 43.8744C347.91 44.2014 347.91 44.5284 347.91 44.8378C347.91 45.1471 347.91 45.5095 347.91 45.7216L340.893 45.8277Z" fill="#02263C"/>
<path d="M339.558 45.1648C339.434 44.767 339.372 44.4931 339.302 44.2102C339.231 43.9274 339.169 43.6446 339.116 43.3264C339.001 42.7784 338.895 42.2304 338.815 41.6912C338.63 40.6218 338.533 39.5523 338.418 38.4917C338.303 37.4311 338.285 36.3705 338.259 35.3098C338.232 34.2492 338.259 33.2063 338.303 32.1545C338.473 28.0063 339.204 23.9003 340.477 19.9485C341.689 16.0847 343.432 12.408 345.656 9.02412C346.73 7.35256 347.911 5.75238 349.192 4.23365C349.806 3.47155 350.465 2.74558 351.163 2.05937L353.16 0L351.622 2.47478C351.089 3.27204 350.605 4.10149 350.173 4.9584C349.278 6.64118 348.492 8.38011 347.822 10.1643C346.463 13.6395 345.591 17.2861 345.232 21.0003C344.858 24.6057 344.977 28.2453 345.586 31.8186C345.709 32.7025 345.939 33.5863 346.098 34.4702C346.257 35.354 346.549 36.1849 346.788 37.0245C347.026 37.8642 347.318 38.695 347.672 39.4816C347.822 39.8882 347.99 40.2682 348.158 40.6395C348.23 40.8238 348.312 41.0038 348.405 41.1786C348.466 41.3234 348.54 41.4624 348.626 41.594L339.558 45.1648Z" fill="#02263C"/>
<path d="M341.166 50.0083C340.866 49.7166 340.689 49.5045 340.495 49.2835C340.3 49.0625 340.106 48.8416 339.938 48.6294C339.584 48.1964 339.231 47.7456 338.913 47.3214C338.25 46.4375 337.666 45.5536 337.074 44.6698C336.482 43.7859 335.96 42.9021 335.448 41.9299C334.935 40.9576 334.449 40.0826 334.025 39.1192C332.243 35.3664 330.982 31.3876 330.277 27.2933C329.556 23.311 329.386 19.2484 329.773 15.2199C329.942 13.2467 330.237 11.2863 330.657 9.35112C330.862 8.38749 331.125 7.43709 331.444 6.50512L332.248 3.70331L332.036 6.60234C331.938 7.55949 331.896 8.52164 331.912 9.48369C331.9 11.3893 332.012 13.2936 332.248 15.1845C332.655 18.8909 333.574 22.5229 334.979 25.9763C336.325 29.3458 338.124 32.5157 340.327 35.3982C340.848 36.123 341.449 36.7859 341.997 37.4753C342.545 38.1647 343.19 38.7922 343.765 39.4197C344.339 40.0473 345.011 40.6483 345.665 41.1874C345.983 41.4791 346.31 41.7354 346.629 41.9917C346.788 42.1243 346.947 42.248 347.097 42.3541C347.221 42.4503 347.351 42.5388 347.486 42.6193L341.166 50.0083Z" fill="#02263C"/>
<path d="M315.199 93.0872C309.578 98.192 305.148 104.471 302.225 111.479C299.301 118.487 297.955 126.052 298.282 133.638C302.295 124.932 308.216 116.774 316.392 112.293" fill="#02263C"/>
<path d="M319.353 104.736C308.163 114.618 301.676 130.138 302.436 145.287C306.458 136.573 312.379 128.424 320.555 123.942" fill="#02263C"/>
<path d="M332.328 175.992C328.177 182.351 322.679 187.719 316.222 191.716C309.766 195.713 302.51 198.242 294.968 199.123C302.922 193.82 310.037 186.643 313.175 177.857" fill="#02263C"/>
<path d="M334.98 200.281C327.025 212.893 312.698 221.749 297.619 223.42C305.574 218.064 312.698 210.931 315.826 202.146" fill="#02263C"/>
<path d="M570.57 290.318C578.127 289.019 586.789 287.579 591.482 286.942L595.981 310.046L545.601 302.312C552.641 296.062 561.291 291.908 570.57 290.318Z" fill="#FFB999"/>
<path d="M569.032 288.948C568.06 294.994 564.516 299.608 558.709 301.552C535.03 309.507 505.192 305.812 483.449 293.5C478.298 290.582 473.461 287.14 469.016 283.23C454.534 270.594 444.452 253.677 440.229 234.928L450.198 183.77C450.702 184.08 451.188 184.398 451.666 184.734C453.61 186.059 456.288 187.562 457.941 189.215H457.057C460.301 192.432 463.898 196.188 466.187 200.236C469.072 205.461 471.418 210.967 473.187 216.667C477.315 229.536 479.728 243.068 485.853 255.115C500.657 284.246 538.159 299.484 569.032 288.948Z" fill="#EDDFDF"/>
<path d="M585.33 555.35L596.228 584.296L622.187 578.56L599.304 552.858" fill="#FFB999"/>
<path d="M585.33 555.35L589.299 565.894L608.637 563.34L599.304 552.858" fill="#FC8C60"/>
<path d="M508.965 363.519L547.678 376.193C553.35 378.05 558.531 381.159 562.838 385.29C567.145 389.421 570.467 394.468 572.558 400.057C582.712 427.307 590.264 455.457 595.114 484.129L608.089 561.175L586.126 562.5L535.914 451.038" fill="#277BA0"/>
<path d="M526.28 408.463C526.107 408.463 525.937 408.412 525.793 408.316C525.648 408.22 525.535 408.083 525.467 407.924L524.247 405.087C524.19 404.979 524.155 404.86 524.146 404.738C524.137 404.616 524.153 404.494 524.193 404.379C524.234 404.263 524.297 404.158 524.381 404.068C524.464 403.979 524.565 403.908 524.677 403.859C524.789 403.811 524.91 403.786 525.032 403.787C525.155 403.788 525.275 403.814 525.387 403.863C525.499 403.913 525.599 403.985 525.681 404.076C525.763 404.166 525.826 404.272 525.865 404.388L527.093 407.225C527.185 407.44 527.188 407.682 527.102 407.899C527.016 408.116 526.848 408.29 526.634 408.383C526.523 408.434 526.402 408.461 526.28 408.463Z" fill="#74CFF7"/>
<path d="M585.507 545.477C585.334 545.477 585.164 545.426 585.019 545.33C584.875 545.234 584.762 545.098 584.694 544.938L582.219 539.237C582.173 539.13 582.148 539.015 582.146 538.898C582.145 538.781 582.166 538.665 582.21 538.556C582.253 538.448 582.318 538.349 582.4 538.266C582.482 538.182 582.58 538.116 582.688 538.071C582.902 537.979 583.144 537.976 583.361 538.062C583.578 538.148 583.752 538.316 583.845 538.53L586.311 544.24C586.358 544.347 586.383 544.462 586.386 544.578C586.388 544.695 586.367 544.811 586.324 544.919C586.282 545.027 586.218 545.126 586.137 545.21C586.056 545.294 585.959 545.361 585.852 545.407C585.742 545.451 585.625 545.475 585.507 545.477ZM580.566 534.058C580.394 534.059 580.225 534.009 580.08 533.915C579.936 533.82 579.822 533.686 579.753 533.528L577.287 527.818C577.241 527.711 577.216 527.596 577.214 527.48C577.212 527.364 577.233 527.248 577.275 527.14C577.318 527.031 577.382 526.932 577.463 526.849C577.543 526.765 577.64 526.698 577.747 526.651C577.854 526.605 577.968 526.58 578.085 526.578C578.201 526.576 578.317 526.597 578.425 526.64C578.534 526.682 578.633 526.746 578.716 526.827C578.8 526.908 578.867 527.004 578.914 527.111L581.38 532.821C581.426 532.927 581.452 533.042 581.454 533.159C581.456 533.275 581.435 533.391 581.392 533.5C581.35 533.608 581.286 533.707 581.205 533.791C581.124 533.874 581.027 533.941 580.92 533.987C580.807 534.032 580.687 534.056 580.566 534.058ZM575.634 522.639C575.462 522.639 575.293 522.589 575.149 522.495C575.004 522.401 574.89 522.267 574.821 522.108L572.355 516.399C572.302 516.292 572.27 516.174 572.263 516.055C572.256 515.935 572.273 515.815 572.314 515.702C572.355 515.589 572.418 515.486 572.5 515.398C572.582 515.311 572.681 515.241 572.791 515.193C572.901 515.145 573.02 515.119 573.14 515.119C573.26 515.118 573.379 515.142 573.489 515.188C573.6 515.235 573.7 515.304 573.783 515.39C573.866 515.477 573.931 515.579 573.973 515.692L576.448 521.401C576.494 521.509 576.519 521.624 576.521 521.741C576.522 521.858 576.501 521.974 576.457 522.083C576.413 522.191 576.349 522.29 576.267 522.373C576.185 522.457 576.087 522.523 575.979 522.568C575.87 522.614 575.753 522.639 575.634 522.639ZM570.694 511.219C570.523 511.218 570.356 511.168 570.213 511.073C570.07 510.979 569.958 510.846 569.889 510.689L567.415 504.979C567.369 504.873 567.344 504.758 567.343 504.642C567.341 504.525 567.363 504.41 567.406 504.302C567.449 504.194 567.513 504.096 567.594 504.013C567.675 503.929 567.772 503.863 567.879 503.817C567.985 503.771 568.1 503.747 568.216 503.745C568.333 503.744 568.448 503.765 568.556 503.808C568.664 503.852 568.762 503.915 568.845 503.997C568.929 504.078 568.995 504.174 569.041 504.281L571.507 509.991C571.599 510.205 571.602 510.448 571.516 510.664C571.43 510.881 571.261 511.055 571.047 511.149C570.936 511.198 570.815 511.223 570.694 511.219ZM565.762 499.8C565.589 499.801 565.42 499.751 565.276 499.657C565.131 499.562 565.018 499.428 564.949 499.27L562.483 493.56C562.39 493.344 562.387 493.101 562.474 492.883C562.561 492.665 562.731 492.49 562.947 492.398C563.162 492.305 563.406 492.302 563.624 492.389C563.842 492.476 564.016 492.646 564.109 492.862L566.575 498.572C566.667 498.786 566.67 499.028 566.584 499.245C566.498 499.462 566.329 499.636 566.115 499.729C566.004 499.777 565.883 499.801 565.762 499.8ZM560.83 488.39C560.656 488.389 560.487 488.338 560.342 488.242C560.198 488.146 560.084 488.01 560.017 487.85L557.551 482.141C557.493 482.033 557.459 481.914 557.45 481.792C557.44 481.671 557.456 481.548 557.497 481.433C557.537 481.318 557.601 481.212 557.684 481.122C557.767 481.033 557.868 480.962 557.98 480.913C558.093 480.865 558.214 480.84 558.336 480.841C558.458 480.842 558.579 480.868 558.69 480.918C558.802 480.967 558.902 481.04 558.984 481.13C559.067 481.22 559.129 481.327 559.168 481.442L561.634 487.152C561.726 487.367 561.729 487.609 561.643 487.826C561.557 488.043 561.389 488.217 561.175 488.31C561.067 488.361 560.949 488.389 560.83 488.39ZM555.889 476.97C555.709 476.971 555.532 476.916 555.384 476.813C555.235 476.711 555.122 476.565 555.058 476.396L552.592 470.686C552.5 470.47 552.497 470.227 552.584 470.009C552.671 469.791 552.841 469.616 553.056 469.524C553.272 469.431 553.516 469.428 553.734 469.515C553.952 469.602 554.126 469.772 554.219 469.988L556.685 475.697C556.776 475.912 556.78 476.154 556.694 476.371C556.607 476.588 556.439 476.762 556.225 476.855C556.123 476.918 556.008 476.957 555.889 476.97ZM550.957 465.551C550.785 465.551 550.616 465.502 550.471 465.407C550.327 465.313 550.213 465.179 550.144 465.021L547.678 459.311C547.632 459.204 547.607 459.089 547.605 458.973C547.603 458.856 547.624 458.741 547.666 458.632C547.709 458.524 547.773 458.425 547.854 458.341C547.934 458.258 548.031 458.191 548.138 458.144C548.245 458.098 548.359 458.073 548.476 458.071C548.592 458.069 548.708 458.09 548.816 458.132C548.925 458.175 549.024 458.239 549.107 458.32C549.191 458.4 549.258 458.497 549.305 458.604L551.771 464.313C551.817 464.42 551.843 464.535 551.845 464.652C551.847 464.768 551.826 464.884 551.783 464.992C551.741 465.101 551.677 465.2 551.596 465.283C551.515 465.367 551.418 465.434 551.311 465.48C551.198 465.525 551.078 465.549 550.957 465.551ZM546.025 454.131C545.853 454.132 545.684 454.082 545.54 453.988C545.395 453.894 545.281 453.759 545.212 453.601L542.746 447.891C542.693 447.784 542.661 447.667 542.654 447.547C542.647 447.428 542.664 447.308 542.705 447.195C542.746 447.082 542.809 446.979 542.891 446.891C542.973 446.803 543.072 446.733 543.182 446.685C543.292 446.637 543.411 446.612 543.531 446.611C543.651 446.611 543.77 446.634 543.88 446.681C543.991 446.728 544.091 446.796 544.174 446.883C544.257 446.97 544.322 447.072 544.364 447.184L546.83 452.894C546.877 453.001 546.902 453.116 546.904 453.232C546.906 453.349 546.885 453.465 546.843 453.573C546.8 453.681 546.736 453.78 546.655 453.864C546.574 453.948 546.477 454.015 546.37 454.061C546.261 454.105 546.144 454.129 546.025 454.131ZM541.085 442.712C540.912 442.713 540.743 442.663 540.599 442.569C540.454 442.474 540.341 442.34 540.272 442.182L537.806 436.472C537.76 436.365 537.735 436.251 537.734 436.134C537.732 436.018 537.754 435.903 537.797 435.795C537.84 435.687 537.904 435.589 537.985 435.505C538.066 435.422 538.163 435.356 538.27 435.31C538.376 435.264 538.491 435.24 538.607 435.238C538.724 435.237 538.839 435.258 538.947 435.301C539.055 435.344 539.153 435.408 539.236 435.489C539.32 435.57 539.386 435.667 539.432 435.774L541.898 441.475C541.945 441.581 541.97 441.696 541.972 441.813C541.974 441.929 541.954 442.045 541.911 442.154C541.868 442.262 541.804 442.361 541.723 442.445C541.642 442.528 541.545 442.595 541.438 442.641C541.327 442.691 541.206 442.715 541.085 442.712ZM536.153 431.319C535.98 431.32 535.811 431.27 535.667 431.176C535.522 431.082 535.409 430.947 535.34 430.789L532.874 425.079C532.782 424.865 532.779 424.623 532.865 424.406C532.951 424.189 533.119 424.015 533.333 423.921C533.44 423.875 533.555 423.849 533.672 423.847C533.788 423.845 533.904 423.866 534.012 423.909C534.121 423.951 534.22 424.015 534.303 424.096C534.387 424.177 534.454 424.274 534.5 424.381L536.966 430.091C537.058 430.305 537.061 430.547 536.975 430.764C536.889 430.981 536.72 431.155 536.506 431.249C536.395 431.296 536.274 431.32 536.153 431.319ZM531.194 419.882C531.021 419.882 530.851 419.831 530.707 419.735C530.562 419.639 530.449 419.503 530.381 419.343L527.942 413.642C527.871 413.432 527.882 413.203 527.972 413C528.062 412.798 528.225 412.636 528.429 412.548C528.633 412.46 528.862 412.452 529.071 412.526C529.281 412.599 529.455 412.748 529.559 412.944L532.025 418.654C532.117 418.868 532.12 419.11 532.034 419.327C531.948 419.544 531.78 419.718 531.566 419.812C531.449 419.864 531.322 419.888 531.194 419.882Z" fill="#74CFF7"/>
<path d="M589.193 554.024C589.022 554.023 588.855 553.972 588.712 553.878C588.569 553.784 588.457 553.651 588.389 553.494L587.16 550.639C587.103 550.531 587.068 550.413 587.059 550.291C587.049 550.169 587.065 550.047 587.106 549.931C587.146 549.816 587.21 549.71 587.293 549.621C587.377 549.531 587.477 549.46 587.59 549.412C587.702 549.363 587.823 549.339 587.945 549.339C588.067 549.34 588.188 549.366 588.3 549.416C588.411 549.466 588.511 549.538 588.594 549.628C588.676 549.719 588.738 549.825 588.777 549.941L590.006 552.778C590.053 552.885 590.078 553 590.08 553.116C590.083 553.233 590.062 553.349 590.019 553.457C589.976 553.565 589.912 553.664 589.831 553.748C589.75 553.832 589.653 553.899 589.546 553.945C589.435 553.993 589.315 554.02 589.193 554.024Z" fill="#74CFF7"/>
<path d="M587.248 589.529C587.107 583.951 587.248 577.729 591.058 573.69C591.672 572.945 592.542 572.457 593.497 572.32C594.473 572.368 595.405 572.738 596.149 573.372C598.217 574.821 600.188 576.501 602.565 577.349C604.943 578.198 607.93 578.003 609.583 576.094C611.236 574.185 611.05 571.021 612.544 568.864C614.038 566.708 616.716 566.062 619.155 566.442C621.586 566.957 623.855 568.055 625.767 569.642C634.994 576.589 641.464 587.319 652.079 591.888C656.445 593.771 661.297 594.469 665.496 596.723C669.694 598.977 673.265 603.591 672.098 608.213C671.126 612.005 667.246 614.4 663.383 615.107C659.203 615.823 654.925 614.948 650.771 614.073L612.924 606.118" fill="#EA5347"/>
<path d="M679.451 297.31H666.724V308.287H679.451V297.31Z" fill="#E2ECFF"/>
<path d="M663.357 297.31H650.629V308.287H663.357V297.31Z" fill="#E2ECFF"/>
<path d="M647.262 297.31H634.534V308.287H647.262V297.31Z" fill="#E2ECFF"/>
<path d="M631.167 297.31H618.439V308.287H631.167V297.31Z" fill="#E2ECFF"/>
<path d="M695.556 297.31H682.828V308.287H695.556V297.31Z" fill="#E2ECFF"/>
<path d="M711.65 297.31H698.923V308.287H711.65V297.31Z" fill="#E2ECFF"/>
<path d="M727.745 297.31H715.018V308.287H727.745V297.31Z" fill="#E2ECFF"/>
<path d="M782.164 88.5442H751.22V285.696H782.164V88.5442Z" fill="#E2ECFF"/>
<path opacity="0.38" d="M782.173 88.5442H755.109V285.696H782.173V88.5442Z" fill="#C5D5ED"/>
<path d="M789.385 72.7056H758.441V324.258H789.385V72.7056Z" fill="#C5D5ED"/>
<path d="M789.385 301.685H758.441V324.258H789.385V301.685Z" fill="#99B0D1"/>
<path d="M743.221 303.293H581.008V324.506H743.221V303.293Z" fill="#99B0D1"/>
<path d="M727.745 303.293H565.532V324.506H727.745V303.293Z" fill="#C5D5ED"/>
<path d="M196.604 296.479C203.359 296.479 208.836 291.002 208.836 284.246C208.836 277.491 203.359 272.014 196.604 272.014C189.848 272.014 184.371 277.491 184.371 284.246C184.371 291.002 189.848 296.479 196.604 296.479Z" fill="#B7959A"/>
<path d="M198.159 246.895H151.315C150.809 246.895 150.308 247.001 149.846 247.206C149.383 247.412 148.969 247.712 148.63 248.088C148.291 248.464 148.034 248.907 147.877 249.388C147.72 249.869 147.666 250.378 147.718 250.881L154.939 322.473C155.029 323.366 155.448 324.194 156.114 324.795C156.781 325.396 157.647 325.728 158.545 325.726H188.525C189.403 325.729 190.251 325.412 190.912 324.834C191.572 324.257 192 323.458 192.114 322.588L201.748 250.996C201.816 250.485 201.774 249.965 201.624 249.471C201.475 248.977 201.222 248.521 200.883 248.132C200.543 247.744 200.124 247.433 199.655 247.22C199.185 247.006 198.675 246.895 198.159 246.895Z" fill="#CEB6B9"/>
<path d="M362.803 482.035C433.276 482.035 490.405 424.905 490.405 354.433C490.405 283.961 433.276 226.832 362.803 226.832C292.331 226.832 235.202 283.961 235.202 354.433C235.202 424.905 292.331 482.035 362.803 482.035Z" fill="#EFD8DB"/>
<path d="M439.398 426.723L469.457 621.55H454.423L381.523 456.765" fill="#F6C375"/>
<path d="M286.032 425.283L255.972 620.11H270.998L343.907 455.325" fill="#F6C375"/>
<path opacity="0.49" d="M286.032 425.283L276.31 488.089C281.49 494.334 288.209 499.121 295.803 501.978C303.398 504.834 311.606 505.662 319.618 504.378L322.358 503.936L343.871 455.325" fill="#F2A43D"/>
<path d="M266.251 620.251C266.16 620.251 266.07 620.233 265.986 620.198C265.904 620.165 265.829 620.115 265.767 620.051C265.705 619.988 265.656 619.913 265.624 619.83C265.592 619.748 265.576 619.659 265.579 619.57C265.582 619.482 265.603 619.395 265.641 619.314L272.403 603.317C274.604 598.102 276.672 592.71 278.537 587.407L288.259 559.619C293.009 546.053 298.832 532.886 305.671 520.243C313.437 505.875 319.886 490.832 324.939 475.3L327.316 467.999C327.373 467.834 327.491 467.698 327.646 467.619C327.801 467.54 327.981 467.524 328.147 467.575C328.236 467.601 328.318 467.646 328.388 467.706C328.458 467.766 328.515 467.84 328.555 467.923C328.595 468.006 328.617 468.097 328.62 468.189C328.622 468.281 328.606 468.373 328.571 468.459L326.203 475.759C321.122 491.367 314.64 506.483 306.838 520.924C300.032 533.505 294.237 546.607 289.505 560.105L279.783 587.893C277.909 593.25 275.832 598.623 273.596 603.865L266.834 619.853C266.785 619.968 266.703 620.066 266.6 620.136C266.497 620.207 266.376 620.247 266.251 620.251Z" fill="#E29233"/>
<path d="M259.799 620.702H259.702C259.528 620.674 259.372 620.578 259.268 620.436C259.164 620.294 259.12 620.116 259.145 619.942L261.921 601.902C262.804 596.29 263.918 590.633 265.182 585.109L271.705 556.402C274.869 542.445 276.92 528.259 277.839 513.977C278.898 497.598 281.439 481.348 285.431 465.427L287.305 457.985C287.319 457.894 287.352 457.807 287.401 457.73C287.451 457.652 287.516 457.586 287.593 457.535C287.669 457.484 287.756 457.449 287.847 457.434C287.937 457.418 288.03 457.421 288.119 457.443C288.209 457.466 288.293 457.506 288.365 457.562C288.438 457.619 288.498 457.69 288.542 457.77C288.586 457.851 288.613 457.94 288.62 458.032C288.628 458.124 288.616 458.216 288.586 458.303L286.721 465.789C282.744 481.631 280.215 497.801 279.164 514.101C278.232 528.445 276.164 542.694 272.978 556.711L266.455 585.419C265.2 590.934 264.112 596.564 263.211 602.141L260.436 620.163C260.409 620.313 260.331 620.449 260.215 620.547C260.098 620.645 259.952 620.7 259.799 620.702Z" fill="#E29233"/>
<path d="M290.018 519.881C289.945 519.894 289.87 519.894 289.797 519.881C289.672 519.836 289.564 519.755 289.485 519.648C289.406 519.541 289.361 519.413 289.355 519.28C288.622 501.453 296.364 453.097 296.426 452.611C296.438 452.523 296.467 452.439 296.512 452.362C296.557 452.286 296.616 452.219 296.688 452.166C296.759 452.113 296.84 452.075 296.926 452.054C297.012 452.033 297.102 452.029 297.189 452.043C297.277 452.058 297.361 452.089 297.436 452.136C297.511 452.184 297.576 452.245 297.627 452.318C297.677 452.391 297.713 452.473 297.732 452.56C297.75 452.647 297.751 452.736 297.734 452.823C297.663 453.292 290.389 498.678 290.619 517.557C296.028 511.37 319.503 483.599 325.301 462.634C325.318 462.544 325.354 462.458 325.406 462.382C325.457 462.306 325.524 462.242 325.602 462.194C325.68 462.145 325.767 462.113 325.858 462.1C325.949 462.087 326.042 462.093 326.13 462.118C326.219 462.142 326.301 462.185 326.372 462.243C326.443 462.301 326.502 462.373 326.543 462.455C326.585 462.537 326.609 462.626 326.615 462.718C326.62 462.81 326.606 462.902 326.574 462.988C319.954 486.878 290.787 519.342 290.513 519.704C290.447 519.767 290.369 519.814 290.284 519.845C290.199 519.875 290.108 519.888 290.018 519.881Z" fill="#E29233"/>
<path d="M279.235 566.16C279.137 566.161 279.04 566.14 278.952 566.098C278.871 566.063 278.799 566.011 278.738 565.947C278.678 565.883 278.632 565.807 278.602 565.724C278.572 565.642 278.56 565.554 278.565 565.466C278.571 565.378 278.594 565.292 278.634 565.214C282.58 556.458 285.233 547.174 286.509 537.655C286.534 537.481 286.627 537.323 286.767 537.217C286.908 537.111 287.086 537.065 287.26 537.09C287.435 537.114 287.593 537.207 287.699 537.348C287.805 537.489 287.851 537.666 287.826 537.841C286.539 547.487 283.859 556.894 279.871 565.771C279.815 565.891 279.725 565.992 279.612 566.062C279.499 566.131 279.367 566.165 279.235 566.16Z" fill="#E29233"/>
<path d="M458.551 621.347C458.421 621.348 458.295 621.31 458.186 621.24C458.078 621.169 457.993 621.068 457.941 620.95L451.179 604.952C448.97 599.728 446.893 594.346 444.992 588.981L435.27 561.201C430.542 547.7 424.749 534.596 417.947 522.011C410.149 507.576 403.679 492.462 398.617 476.855L396.239 469.546C396.186 469.379 396.201 469.199 396.281 469.043C396.36 468.888 396.498 468.77 396.664 468.715C396.831 468.662 397.013 468.676 397.17 468.756C397.327 468.835 397.447 468.973 397.503 469.139L399.872 476.44C404.919 491.972 411.362 507.014 419.122 521.384C425.956 534.029 431.778 547.195 436.534 560.759L446.256 588.548C448.121 593.851 450.19 599.233 452.39 604.457L459.161 620.463C459.196 620.545 459.214 620.632 459.215 620.72C459.217 620.809 459.2 620.897 459.167 620.979C459.135 621.061 459.086 621.136 459.024 621.199C458.962 621.262 458.888 621.313 458.807 621.347C458.723 621.365 458.635 621.365 458.551 621.347Z" fill="#E29233"/>
<path d="M464.994 621.798C464.837 621.798 464.684 621.742 464.565 621.64C464.445 621.538 464.365 621.396 464.34 621.241L461.574 603.211C460.69 597.642 459.576 592.012 458.321 586.497L451.807 557.79C448.622 543.772 446.553 529.524 445.62 515.179C444.561 498.878 442.031 482.705 438.063 466.859L436.189 459.417C436.168 459.332 436.163 459.244 436.176 459.158C436.188 459.071 436.218 458.988 436.263 458.913C436.307 458.838 436.367 458.772 436.437 458.72C436.507 458.668 436.586 458.63 436.671 458.608C436.756 458.587 436.844 458.582 436.93 458.595C437.017 458.607 437.1 458.637 437.175 458.682C437.25 458.726 437.316 458.785 437.368 458.855C437.42 458.925 437.458 459.005 437.48 459.09L439.345 466.541C443.338 482.461 445.879 498.711 446.937 515.091C447.862 529.372 449.916 543.558 453.08 557.516L459.603 586.196C460.858 591.747 461.954 597.404 462.864 602.99L465.63 621.02C465.645 621.106 465.643 621.193 465.624 621.278C465.604 621.363 465.567 621.442 465.516 621.512C465.465 621.583 465.4 621.642 465.326 621.686C465.251 621.731 465.168 621.76 465.082 621.771L464.994 621.798Z" fill="#E29233"/>
<path d="M434.775 520.986C434.682 520.985 434.59 520.965 434.505 520.927C434.42 520.889 434.343 520.834 434.28 520.765C433.971 520.447 404.804 487.974 398.201 464.022C398.178 463.938 398.171 463.85 398.181 463.763C398.191 463.676 398.218 463.592 398.261 463.516C398.304 463.439 398.361 463.372 398.43 463.318C398.498 463.264 398.577 463.224 398.661 463.2C398.745 463.176 398.833 463.169 398.92 463.179C399.007 463.189 399.091 463.217 399.167 463.259C399.243 463.302 399.311 463.359 399.365 463.428C399.419 463.497 399.459 463.575 399.483 463.659C405.281 484.633 428.756 512.386 434.156 518.582C434.395 499.712 427.086 454.326 427.086 453.857C427.069 453.77 427.07 453.681 427.088 453.594C427.107 453.507 427.142 453.425 427.193 453.352C427.244 453.28 427.309 453.218 427.384 453.171C427.459 453.123 427.543 453.092 427.63 453.078C427.718 453.063 427.808 453.067 427.894 453.088C427.98 453.109 428.061 453.147 428.132 453.2C428.203 453.253 428.263 453.32 428.308 453.396C428.353 453.473 428.382 453.557 428.394 453.645C428.473 454.131 436.225 502.487 435.465 520.314C435.459 520.446 435.415 520.573 435.338 520.68C435.261 520.787 435.155 520.869 435.031 520.915C434.951 520.955 434.864 520.979 434.775 520.986Z" fill="#E29233"/>
<path d="M445.567 567.264C445.441 567.264 445.318 567.228 445.212 567.161C445.106 567.093 445.02 566.998 444.966 566.884C440.974 558.01 438.294 548.601 437.011 538.955C436.991 538.865 436.989 538.773 437.006 538.683C437.024 538.593 437.06 538.507 437.112 538.432C437.164 538.356 437.231 538.292 437.309 538.244C437.387 538.196 437.474 538.164 437.564 538.151C437.655 538.138 437.748 538.144 437.836 538.169C437.924 538.194 438.006 538.236 438.077 538.294C438.148 538.353 438.206 538.425 438.248 538.506C438.29 538.588 438.314 538.678 438.319 538.769C439.599 548.286 442.255 557.566 446.203 566.319C446.276 566.478 446.284 566.66 446.224 566.826C446.165 566.991 446.043 567.126 445.885 567.203C445.786 567.249 445.676 567.27 445.567 567.264Z" fill="#E29233"/>
<path opacity="0.49" d="M439.398 426.723L448.528 485.941C433.396 492.879 416.802 496.025 400.181 495.107L398.413 495.009L381.497 456.774" fill="#F2A43D"/>
<path d="M793.071 619.588H760.112L697.358 332.142H730.317L793.071 619.588Z" fill="#F6C375"/>
<path opacity="0.49" d="M736.734 361.53H703.775L697.358 332.142H730.317L736.734 361.53Z" fill="#F2A43D"/>
<path d="M145.34 619.588H178.299L241.053 332.142H208.094L145.34 619.588Z" fill="#F6C375"/>
<path opacity="0.49" d="M202.481 357.845H235.21L241.053 332.142H208.094L202.481 357.845Z" fill="#F2A43D"/>
<path d="M85.1944 250.209C83.1969 252.207 80.4128 250.209 78.0441 251.146C72.6084 253.25 67.0667 252.843 57.0084 246.17C56.5488 250.289 58.1221 254.31 59.9605 257.66C66.006 268.558 75.64 275.496 85.5922 276.115" fill="#78AD04"/>
<path d="M88.0402 249.776C86.5112 253.939 82.2333 253.93 79.7674 257.103C74.1284 264.36 67.1725 268.691 51.9614 269.256C53.2607 274.657 56.9994 278.183 60.7292 280.614C66.5606 284.53 73.416 286.643 80.4403 286.689C87.4646 286.734 94.3469 284.711 100.229 280.87" fill="#83CE00"/>
<path d="M106.221 415.949C104.224 417.947 101.44 415.949 99.0621 416.886C93.6353 418.998 88.0935 418.583 78.0353 411.919C77.5757 416.037 79.149 420.059 80.9785 423.365C87.0329 434.262 96.6669 441.201 106.61 441.811" fill="#78AD04"/>
<path d="M109.058 415.525C107.538 419.679 103.26 419.67 100.794 422.852C95.1553 430.108 88.2347 434.404 72.9883 434.996C74.2875 440.396 78.0262 443.932 81.7561 446.354C87.586 450.268 94.4392 452.381 101.461 452.428C108.484 452.475 115.365 450.455 121.247 446.619" fill="#83CE00"/>
<path d="M103.075 273.057C105.488 273.755 107.441 270.405 109.88 269.875C115.457 268.735 120.398 265.235 127.61 253.471C129.246 257.006 128.998 261.531 128.3 265.58C126.002 278.943 119.258 290.716 110.375 296.877" fill="#78AD04"/>
<path d="M100.353 274.268C103.004 277.202 106.875 274.789 110.075 276.292C117.367 279.739 124.959 279.748 139.048 271.687C139.463 277.352 137.094 282.682 134.407 287.004C125.569 301.252 112.028 309.719 98.4346 309.533" fill="#83CE00"/>
<path d="M118.834 326.901C121.247 327.599 123.2 324.25 125.64 323.719C131.217 322.579 136.157 319.079 143.37 307.315C145.005 310.806 144.757 315.376 144.059 319.424C141.761 332.788 135.017 344.552 126.135 350.721" fill="#78AD04"/>
<path d="M116.111 328.112C118.763 331.046 122.634 328.633 125.834 330.136C133.125 333.574 140.718 333.592 154.806 325.531C155.222 331.197 152.853 336.526 150.166 340.848C141.328 355.096 127.787 363.563 114.193 363.369" fill="#83CE00"/>
<path d="M133.789 412.034C136.201 412.732 138.155 409.382 140.594 408.861C146.171 407.72 151.112 404.212 158.324 392.456C159.959 395.992 159.712 400.508 159.014 404.556C156.716 417.92 149.972 429.693 141.089 435.853" fill="#78AD04"/>
<path d="M131.066 413.253C133.718 416.188 137.589 413.766 140.789 415.268C148.081 418.716 155.673 418.724 169.761 410.672C170.177 416.338 167.808 421.668 165.121 425.981C156.283 440.228 142.742 448.705 129.148 448.51" fill="#83CE00"/>
<path d="M130.103 296.974C114.052 320.387 90.789 325.567 70.8847 324.638C68.2332 293.58 66.7394 257.466 73.386 227.282C75.737 216.579 79.1576 198.999 87.0415 201.536C91.01 202.835 96.101 212.699 98.4255 217.321C111.158 242.955 121.753 269.597 130.103 296.974Z" fill="#ADE701"/>
<path d="M147.461 369.573C128.264 392.288 101.227 393.623 81.0401 390.362C78.3885 378.2 76.0905 365.897 74.2609 353.443C72.8644 343.862 71.7154 334.255 70.9111 324.647C90.7978 325.575 114.061 320.396 130.129 296.983C137.44 320.788 143.229 345.034 147.461 369.573Z" fill="#83CE00"/>
<path d="M155.018 501.285L102.65 470.854C94.6956 444.444 86.9796 417.743 81.0312 390.379C101.218 393.641 128.255 392.306 147.453 369.591C154.983 412.997 157.794 457.746 155.018 501.285Z" fill="#ADE701"/>
<path d="M135.079 490.723C134.915 490.722 134.757 490.664 134.631 490.559C134.506 490.454 134.42 490.309 134.389 490.148L85.0971 220.485C85.0762 220.307 85.1238 220.128 85.2303 219.983C85.3369 219.839 85.4944 219.74 85.6709 219.708C85.8475 219.675 86.0298 219.711 86.1809 219.808C86.332 219.904 86.4407 220.055 86.4848 220.229L135.777 489.892C135.811 490.076 135.77 490.266 135.664 490.42C135.558 490.574 135.395 490.68 135.211 490.714L135.079 490.723Z" fill="#78AD04"/>
<path d="M101.413 306.413H101.36C91.8959 305.372 82.836 302.008 74.9858 296.62C74.9002 296.571 74.8259 296.505 74.7674 296.426C74.709 296.346 74.6678 296.256 74.6466 296.159C74.6253 296.063 74.6244 295.963 74.6439 295.867C74.6634 295.77 74.7028 295.679 74.7598 295.598C74.8167 295.518 74.8899 295.45 74.9745 295.4C75.0592 295.349 75.1534 295.317 75.2513 295.305C75.3492 295.293 75.4484 295.301 75.5427 295.33C75.637 295.359 75.7243 295.407 75.799 295.471C83.4295 300.709 92.2326 303.988 101.431 305.017C101.523 305.021 101.613 305.044 101.696 305.084C101.779 305.124 101.854 305.181 101.915 305.25C101.976 305.319 102.022 305.4 102.051 305.487C102.081 305.575 102.092 305.667 102.085 305.759C102.072 305.932 101.997 306.093 101.873 306.214C101.749 306.334 101.585 306.405 101.413 306.413Z" fill="#78AD04"/>
<path d="M103.26 313.767C103.126 313.767 102.995 313.729 102.882 313.657C102.769 313.585 102.68 313.482 102.624 313.361C102.546 313.191 102.538 312.996 102.603 312.821C102.667 312.645 102.799 312.502 102.968 312.424C109.543 309.034 115.316 304.279 119.903 298.476C119.961 298.403 120.033 298.342 120.115 298.297C120.196 298.252 120.286 298.223 120.379 298.212C120.471 298.202 120.565 298.209 120.655 298.235C120.745 298.26 120.829 298.304 120.902 298.362C120.975 298.42 121.036 298.491 121.081 298.573C121.127 298.655 121.155 298.744 121.166 298.837C121.177 298.93 121.169 299.024 121.143 299.114C121.118 299.203 121.075 299.287 121.017 299.36C116.309 305.361 110.349 310.263 103.552 313.723C103.459 313.759 103.359 313.774 103.26 313.767Z" fill="#78AD04"/>
<path d="M110.817 353.461C110.659 353.461 110.505 353.408 110.38 353.31C110.255 353.213 110.167 353.076 110.129 352.922C110.091 352.768 110.107 352.606 110.172 352.462C110.237 352.317 110.35 352.199 110.49 352.126C116.993 348.434 122.65 343.421 127.098 337.41C127.151 337.335 127.219 337.271 127.298 337.222C127.376 337.173 127.464 337.14 127.555 337.125C127.646 337.111 127.74 337.114 127.829 337.136C127.919 337.157 128.004 337.196 128.079 337.251C128.228 337.362 128.327 337.527 128.355 337.711C128.383 337.894 128.338 338.082 128.229 338.232C123.677 344.444 117.849 349.609 111.135 353.381C111.037 353.432 110.928 353.46 110.817 353.461Z" fill="#78AD04"/>
<path d="M122.414 417.178C122.306 417.18 122.198 417.157 122.102 417.109C122.005 417.061 121.921 416.991 121.857 416.904C121.8 416.831 121.759 416.748 121.734 416.66C121.71 416.571 121.703 416.479 121.715 416.387C121.726 416.296 121.756 416.208 121.801 416.129C121.847 416.049 121.908 415.979 121.98 415.923C128.015 410.884 133.042 404.748 136.794 397.839C136.882 397.675 137.031 397.552 137.209 397.499C137.388 397.445 137.58 397.464 137.744 397.552C137.908 397.64 138.03 397.789 138.084 397.967C138.138 398.145 138.119 398.338 138.031 398.502C134.184 405.592 129.029 411.89 122.838 417.063C122.713 417.147 122.564 417.187 122.414 417.178Z" fill="#78AD04"/>
<path d="M122.678 428.367H122.625C113.157 427.326 104.094 423.959 96.2424 418.565C96.1675 418.512 96.1039 418.444 96.0552 418.366C96.0064 418.288 95.9735 418.202 95.9583 418.111C95.9432 418.02 95.946 417.927 95.9667 417.838C95.9873 417.748 96.0255 417.664 96.0789 417.589C96.1322 417.514 96.1999 417.45 96.2778 417.401C96.3558 417.353 96.4426 417.32 96.5333 417.305C96.624 417.289 96.7168 417.292 96.8064 417.313C96.896 417.334 96.9806 417.372 97.0555 417.425C104.682 422.669 113.488 425.945 122.687 426.962C122.86 426.981 123.02 427.064 123.135 427.193C123.251 427.323 123.315 427.491 123.315 427.665C123.315 427.838 123.251 428.006 123.135 428.136C123.02 428.265 122.86 428.348 122.687 428.367H122.678Z" fill="#78AD04"/>
<path d="M113.928 375.637H113.884C108.618 375.104 103.456 373.815 98.558 371.81C98.4009 371.73 98.2794 371.594 98.2172 371.429C98.1551 371.264 98.1569 371.081 98.2221 370.918C98.2874 370.754 98.4115 370.62 98.5702 370.543C98.7288 370.466 98.9104 370.451 99.0795 370.501C103.86 372.428 108.889 373.669 114.017 374.187C114.189 374.207 114.349 374.289 114.465 374.419C114.581 374.548 114.645 374.716 114.645 374.89C114.645 375.064 114.581 375.231 114.465 375.361C114.349 375.491 114.189 375.573 114.017 375.592L113.928 375.637Z" fill="#78AD04"/>
<path d="M93.8029 265.465C88.5247 264.926 83.3514 263.631 78.4416 261.62C78.3473 261.592 78.2599 261.545 78.1849 261.481C78.1099 261.418 78.049 261.339 78.0061 261.251C77.9631 261.162 77.9391 261.066 77.9355 260.967C77.932 260.869 77.9489 260.771 77.9853 260.68C78.0217 260.589 78.0768 260.506 78.147 260.437C78.2172 260.368 78.3009 260.315 78.3929 260.28C78.4849 260.245 78.5832 260.23 78.6813 260.236C78.7795 260.241 78.8755 260.267 78.9631 260.312C83.726 262.244 88.736 263.499 93.8471 264.042C94.0339 264.055 94.208 264.142 94.3319 264.282C94.4558 264.422 94.5198 264.606 94.51 264.793C94.5009 264.974 94.4224 265.145 94.2908 265.27C94.1592 265.395 93.9845 265.465 93.8029 265.465Z" fill="#78AD04"/>
<path d="M106.946 337.516H106.893C101.63 336.983 96.471 335.694 91.5756 333.689C91.4185 333.609 91.297 333.473 91.2348 333.308C91.1727 333.143 91.1744 332.961 91.2397 332.797C91.305 332.633 91.4291 332.5 91.5877 332.423C91.7464 332.346 91.928 332.331 92.0971 332.381C96.8469 334.315 101.846 335.571 106.946 336.111C107.119 336.135 107.276 336.222 107.389 336.355C107.501 336.489 107.56 336.659 107.555 336.833C107.549 337.008 107.479 337.174 107.359 337.3C107.238 337.426 107.075 337.503 106.902 337.516H106.946Z" fill="#78AD04"/>
<path d="M97.9221 284.529C97.7684 284.531 97.6185 284.482 97.4956 284.389C97.3727 284.297 97.2838 284.167 97.2425 284.019C97.2012 283.871 97.2099 283.713 97.2672 283.571C97.3246 283.428 97.4274 283.308 97.5597 283.23C100.36 281.448 103.02 279.454 105.514 277.264C105.583 277.202 105.664 277.155 105.752 277.125C105.839 277.095 105.932 277.083 106.024 277.089C106.117 277.096 106.207 277.121 106.289 277.163C106.372 277.205 106.445 277.264 106.504 277.335C106.565 277.404 106.611 277.485 106.641 277.573C106.67 277.66 106.682 277.752 106.675 277.845C106.669 277.937 106.644 278.026 106.603 278.109C106.561 278.191 106.504 278.265 106.434 278.325C103.893 280.573 101.177 282.616 98.311 284.432C98.194 284.503 98.0585 284.537 97.9221 284.529Z" fill="#78AD04"/>
<path d="M128.335 451.135C128.213 451.135 128.092 451.103 127.985 451.043C127.879 450.982 127.789 450.895 127.725 450.791C127.632 450.63 127.605 450.438 127.651 450.258C127.697 450.078 127.813 449.923 127.973 449.827C130.772 448.043 133.431 446.048 135.928 443.861C135.996 443.799 136.077 443.752 136.165 443.722C136.252 443.692 136.345 443.68 136.438 443.686C136.53 443.693 136.62 443.718 136.703 443.76C136.785 443.802 136.858 443.861 136.918 443.932C136.978 444.001 137.025 444.082 137.054 444.17C137.083 444.257 137.095 444.349 137.089 444.442C137.082 444.534 137.057 444.623 137.016 444.706C136.974 444.788 136.917 444.862 136.847 444.922C134.304 447.172 131.585 449.214 128.715 451.029C128.603 451.104 128.47 451.141 128.335 451.135Z" fill="#78AD04"/>
<path d="M146.772 456.686C148.469 463.05 149.804 469.537 149.547 476.131C149.273 483.316 147.17 490.272 144.686 496.963C144.218 498.236 146.251 498.784 146.719 497.52C149.273 490.643 151.377 483.511 151.66 476.131C151.925 469.343 150.546 462.643 148.814 456.111C148.726 455.858 148.544 455.647 148.306 455.521C148.069 455.396 147.792 455.366 147.533 455.437C147.274 455.507 147.051 455.674 146.91 455.902C146.769 456.131 146.719 456.405 146.772 456.668V456.686Z" fill="#78AD04"/>
<path d="M77.6995 240.027C78.3447 235.122 79.2816 230.049 80.2892 225.126C80.3816 224.853 80.4173 224.565 80.3943 224.278C80.3713 223.991 80.2899 223.712 80.1552 223.458C80.0206 223.204 79.8354 222.98 79.6111 222.8C79.3868 222.62 79.1281 222.488 78.8508 222.411C78.5736 222.335 78.2836 222.315 77.9987 222.355C77.7138 222.394 77.44 222.492 77.194 222.641C76.948 222.79 76.735 222.988 76.5681 223.222C76.4013 223.456 76.284 223.722 76.2235 224.003C75.1364 229.306 74.1906 234.654 73.4836 240.027C73.4801 240.307 73.532 240.585 73.6365 240.845C73.741 241.105 73.8959 241.342 74.0923 241.541C74.2887 241.741 74.5227 241.9 74.7808 242.009C75.0388 242.117 75.3159 242.174 75.596 242.175C76.1504 242.159 76.6777 241.932 77.0691 241.539C77.4605 241.146 77.6862 240.617 77.6995 240.063V240.027Z" fill="white"/>
<path d="M81.3417 217.249C81.6099 215.805 81.166 214.511 80.3501 214.359C79.5342 214.208 78.6554 215.256 78.3871 216.701C78.1188 218.145 78.5628 219.439 79.3787 219.591C80.1945 219.742 81.0734 218.694 81.3417 217.249Z" fill="white"/>
<path d="M27.0812 347.062C25.8084 349.174 22.6619 348.944 20.7617 350.482C16.3424 354.018 11.1454 355.9 0 355.379C0.733596 358.304 3.32328 360.373 5.94832 361.857C10.3012 364.287 15.127 365.749 20.0964 366.144C25.0659 366.539 30.0621 365.858 34.7442 364.147" fill="#78AD04"/>
<path d="M29.5823 345.665C29.3525 349.033 25.4193 350.703 24.0405 353.779C20.9028 360.85 15.7412 366.383 1.87354 372.738C4.60463 375.831 9.04157 376.724 13.1603 376.883C19.9726 377.108 26.7533 375.862 33.0404 373.229C39.3275 370.596 44.9732 366.639 49.5926 361.628" fill="#83CE00"/>
<path d="M93.2995 449.323C92.0267 451.436 88.8802 451.197 86.9799 452.735C82.5607 456.27 77.3636 458.153 66.2183 457.64C66.9519 460.566 69.5415 462.634 72.1666 464.119C76.5211 466.544 81.3466 468.004 86.3153 468.399C91.2839 468.794 96.2794 468.115 100.962 466.408" fill="#78AD04"/>
<path d="M95.8005 447.927C95.5707 451.285 91.6376 452.956 90.2588 456.032C87.1211 463.102 81.9594 468.635 68.0918 474.99C70.8229 478.084 75.2598 478.976 79.3786 479.136C86.1856 479.357 92.9605 478.109 99.2425 475.479C105.525 472.848 111.166 468.895 115.784 463.889" fill="#83CE00"/>
<path d="M50.0083 355.308C52.4301 354.831 53.2697 351.817 55.3733 350.535C60.1903 347.592 63.7433 343.332 67.0489 332.682C69.5502 334.37 70.5843 337.499 71.1147 340.477C71.9139 345.398 71.6439 350.433 70.3232 355.241C69.0024 360.048 66.6618 364.514 63.4605 368.336" fill="#78AD04"/>
<path d="M47.8428 357.182C51.0865 358.119 54.0297 354.981 57.3618 354.734C65.0514 354.186 72.0338 351.198 82.7284 340.353C84.7082 343.968 84.0365 348.449 82.7902 352.374C80.6775 358.854 77.1945 364.803 72.5781 369.818C67.9616 374.832 62.3198 378.794 56.0361 381.435" fill="#83CE00"/>
<path d="M79.7412 385.041C82.163 384.564 83.0026 381.55 85.1062 380.259C89.9232 377.325 93.4763 373.065 96.7819 362.405C99.2832 364.094 100.317 367.231 100.848 370.21C101.647 375.131 101.377 380.166 100.056 384.973C98.7353 389.781 96.3947 394.247 93.1934 398.069" fill="#78AD04"/>
<path d="M77.5757 386.915C80.8194 387.843 83.7626 384.714 87.0859 384.466C94.7754 383.909 101.767 380.931 112.461 370.086C114.441 373.701 113.769 378.173 112.514 382.106C110.401 388.59 106.915 394.542 102.293 399.557C97.6716 404.572 92.0236 408.532 85.7336 411.167" fill="#83CE00"/>
<path d="M117.552 435.942C119.974 435.464 120.814 432.406 122.917 431.169C127.734 428.226 131.287 423.966 134.593 413.315C137.094 414.995 138.128 418.132 138.659 421.111C139.465 426.034 139.202 431.073 137.885 435.885C136.569 440.697 134.231 445.169 131.031 448.996" fill="#78AD04"/>
<path d="M115.413 437.816C118.657 438.752 121.6 435.615 124.923 435.367C132.613 434.81 139.604 431.832 150.299 420.987C152.279 424.602 151.607 429.083 150.361 433.007C148.248 439.488 144.765 445.437 140.148 450.452C135.532 455.466 129.89 459.428 123.606 462.068" fill="#83CE00"/>
<path d="M81.6591 360.708C73.5012 382.584 53.5527 395.126 34.983 402.249C23.7846 382.575 12.1796 359.118 9.75785 336.394C8.87399 328.342 7.10629 315.27 15.061 313.9C19.0736 313.21 26.551 317.797 29.998 319.972C48.5522 331.768 65.8613 345.417 81.6591 360.708Z" fill="#ADE701"/>
<path d="M118.153 402.302C106.911 424.947 82.3927 436.393 62.8861 442.076C57.0085 435.005 51.396 427.704 46.2078 420.121C42.2128 414.279 38.4388 408.321 34.9829 402.232C53.5438 395.09 73.5011 382.548 81.6591 360.691C94.9633 373.519 107.171 387.438 118.153 402.302Z" fill="#83CE00"/>
<path d="M162.355 487.143L105.541 487.302C90.7452 472.86 76.0998 458.029 62.8862 442.111C82.3928 436.401 106.911 424.956 118.153 402.338C137.36 428.305 152.606 457.03 162.355 487.143Z" fill="#ADE701"/>
<path d="M140.824 488.009C140.732 488.011 140.641 487.991 140.558 487.951C140.475 487.911 140.403 487.852 140.347 487.78L18.7199 327.299C18.6649 327.237 18.6233 327.164 18.5978 327.086C18.5722 327.007 18.5631 326.924 18.5712 326.841C18.5793 326.759 18.6043 326.679 18.6447 326.607C18.6851 326.534 18.74 326.471 18.8059 326.421C18.8719 326.371 18.9475 326.335 19.0279 326.316C19.1084 326.296 19.192 326.294 19.2736 326.308C19.3551 326.322 19.4328 326.353 19.5018 326.399C19.5708 326.445 19.6295 326.504 19.6744 326.574L141.292 487.055C141.348 487.118 141.39 487.193 141.414 487.273C141.439 487.354 141.446 487.439 141.435 487.523C141.425 487.607 141.396 487.687 141.351 487.759C141.307 487.83 141.248 487.892 141.177 487.939C141.07 487.999 140.946 488.024 140.824 488.009Z" fill="#78AD04"/>
<path d="M34.9563 382.177C33.6394 382.177 32.3048 382.177 30.9702 382.036C30.8923 382.03 30.8164 382.009 30.7466 381.974C30.6769 381.939 30.6148 381.891 30.5639 381.831C30.5129 381.772 30.4742 381.704 30.4499 381.63C30.4256 381.555 30.4162 381.477 30.4222 381.399C30.4266 381.321 30.4468 381.244 30.4813 381.173C30.5159 381.102 30.5642 381.039 30.6234 380.987C30.6827 380.936 30.7517 380.896 30.8264 380.871C30.9011 380.846 30.98 380.837 31.0586 380.843C44.6257 381.841 57.3708 377.21 57.5034 377.166C57.648 377.127 57.802 377.144 57.935 377.212C58.0681 377.281 58.1707 377.397 58.2226 377.538C58.2746 377.678 58.2723 377.833 58.2161 377.972C58.1599 378.111 58.0538 378.223 57.9188 378.288C50.5133 380.77 42.7661 382.082 34.9563 382.177Z" fill="#78AD04"/>
<path d="M61.4896 382.504C61.4045 382.504 61.3204 382.485 61.2427 382.45C61.1651 382.415 61.0956 382.364 61.0389 382.301C60.981 382.241 60.9363 382.17 60.9074 382.092C60.8785 382.014 60.8662 381.93 60.8712 381.847C60.8762 381.764 60.8984 381.683 60.9364 381.609C60.9744 381.535 61.0273 381.469 61.0919 381.417C65.9481 376.892 69.9116 371.495 72.7764 365.508C72.8409 365.363 72.96 365.251 73.1075 365.194C73.255 365.138 73.4189 365.143 73.563 365.207C73.7072 365.272 73.8199 365.391 73.8762 365.538C73.9326 365.686 73.928 365.85 73.8636 365.994C69.6476 375.424 61.9581 382.283 61.8697 382.354C61.7637 382.446 61.6297 382.498 61.4896 382.504Z" fill="#78AD04"/>
<path d="M79.6614 406.006C79.5804 406.006 79.5001 405.99 79.4256 405.958C79.3511 405.926 79.284 405.879 79.2283 405.82C79.1673 405.764 79.1186 405.696 79.0852 405.619C79.0519 405.543 79.0347 405.461 79.0347 405.378C79.0347 405.295 79.0519 405.213 79.0852 405.137C79.1186 405.061 79.1673 404.993 79.2283 404.936C83.9295 400.238 87.7097 394.701 90.3737 388.612C90.4369 388.469 90.5531 388.356 90.6977 388.298C90.8424 388.239 91.0042 388.239 91.1488 388.298C91.2935 388.356 91.4097 388.469 91.4729 388.611C91.5361 388.754 91.5413 388.916 91.4874 389.062C88.7654 395.318 84.8951 401.008 80.0768 405.838C80.0221 405.892 79.9572 405.934 79.8859 405.963C79.8146 405.992 79.7383 406.007 79.6614 406.006Z" fill="#78AD04"/>
<path d="M108.351 443.941C108.221 443.939 108.094 443.895 107.989 443.817C107.926 443.769 107.874 443.71 107.834 443.641C107.795 443.573 107.769 443.498 107.76 443.419C107.75 443.341 107.756 443.262 107.777 443.186C107.798 443.11 107.834 443.039 107.883 442.977C111.813 437.612 114.706 431.56 116.412 425.132C116.429 425.055 116.461 424.983 116.506 424.919C116.551 424.854 116.609 424.8 116.676 424.759C116.743 424.718 116.817 424.69 116.895 424.678C116.973 424.667 117.052 424.671 117.128 424.69C117.204 424.708 117.276 424.741 117.34 424.786C117.403 424.832 117.457 424.89 117.498 424.956C117.539 425.023 117.567 425.097 117.579 425.174C117.592 425.251 117.588 425.33 117.57 425.406C115.827 431.998 112.862 438.204 108.829 443.702C108.773 443.776 108.701 443.837 108.619 443.878C108.536 443.92 108.444 443.941 108.351 443.941Z" fill="#78AD04"/>
<path d="M89.0127 455.183C87.6958 455.183 86.3612 455.139 85.0266 455.042C84.9479 455.036 84.8712 455.015 84.8008 454.98C84.7305 454.944 84.6679 454.895 84.6169 454.835C84.5659 454.774 84.5273 454.705 84.5036 454.63C84.4798 454.554 84.4713 454.475 84.4786 454.397C84.4818 454.318 84.5011 454.241 84.5353 454.17C84.5696 454.099 84.6181 454.036 84.6777 453.984C84.7374 453.933 84.807 453.894 84.8822 453.871C84.9575 453.848 85.0367 453.84 85.115 453.849C98.6732 454.847 111.427 450.216 111.56 450.163C111.634 450.136 111.713 450.124 111.792 450.128C111.871 450.132 111.948 450.151 112.019 450.185C112.091 450.219 112.155 450.266 112.208 450.324C112.261 450.383 112.302 450.451 112.329 450.525C112.357 450.598 112.37 450.676 112.367 450.754C112.364 450.833 112.346 450.909 112.313 450.98C112.28 451.051 112.233 451.115 112.175 451.167C112.117 451.22 112.049 451.26 111.975 451.285C104.571 453.773 96.8232 455.088 89.0127 455.183Z" fill="#78AD04"/>
<path d="M73.819 422.923C73.6708 422.916 73.5303 422.854 73.4248 422.75C73.3192 422.646 73.2559 422.506 73.2471 422.358C73.2384 422.21 73.2847 422.064 73.3772 421.948C73.4697 421.832 73.6019 421.754 73.7483 421.729C78.7949 421.131 83.7654 420.008 88.5793 418.38C88.724 418.341 88.8779 418.357 89.011 418.426C89.144 418.495 89.2466 418.611 89.2986 418.752C89.3506 418.892 89.3482 419.047 89.292 419.186C89.2358 419.325 89.1298 419.437 88.9947 419.502C84.0932 421.166 79.0304 422.309 73.8897 422.914L73.819 422.923Z" fill="#78AD04"/>
<path d="M24.1555 357.376C24.01 357.377 23.8692 357.325 23.7599 357.229C23.6507 357.132 23.5807 356.999 23.5633 356.855C23.5534 356.776 23.5591 356.697 23.5799 356.621C23.6008 356.545 23.6364 356.473 23.6849 356.411C23.7333 356.348 23.7935 356.296 23.8622 356.257C23.9308 356.218 24.0064 356.193 24.0848 356.183C29.1217 355.583 34.083 354.464 38.8893 352.842C38.9647 352.806 39.0468 352.786 39.1304 352.783C39.214 352.781 39.2971 352.796 39.3747 352.827C39.4522 352.858 39.5223 352.906 39.5805 352.966C39.6387 353.026 39.6838 353.097 39.7128 353.176C39.7418 353.254 39.7541 353.338 39.749 353.421C39.7439 353.504 39.7214 353.586 39.683 353.66C39.6446 353.734 39.5911 353.8 39.526 353.852C39.4608 353.905 39.3855 353.943 39.3047 353.965C34.4004 355.618 29.3386 356.761 24.1997 357.376H24.1555Z" fill="#78AD04"/>
<path d="M56.5666 400.287C56.4183 400.28 56.2779 400.219 56.1723 400.114C56.0668 400.01 56.0035 399.871 55.9947 399.722C55.9859 399.574 56.0323 399.428 56.1248 399.312C56.2173 399.196 56.3495 399.118 56.4958 399.094C61.5454 398.496 66.519 397.374 71.3357 395.744C71.4106 395.7 71.4943 395.672 71.5809 395.664C71.6675 395.655 71.7549 395.665 71.8372 395.693C71.9195 395.722 71.9946 395.768 72.0575 395.828C72.1203 395.888 72.1692 395.961 72.201 396.042C72.2328 396.123 72.2466 396.21 72.2414 396.297C72.2363 396.384 72.2123 396.469 72.1712 396.546C72.1301 396.622 72.0728 396.689 72.0034 396.742C71.9339 396.794 71.8538 396.831 71.7688 396.849C66.8644 398.513 61.7986 399.657 56.6549 400.261L56.5666 400.287Z" fill="#78AD04"/>
<path d="M48.3111 365.101C48.2343 365.102 48.158 365.087 48.0867 365.059C48.0154 365.03 47.9505 364.987 47.8957 364.933C47.8404 364.878 47.7965 364.813 47.7666 364.741C47.7366 364.669 47.7212 364.591 47.7212 364.513C47.7212 364.435 47.7366 364.358 47.7666 364.286C47.7965 364.214 47.8404 364.149 47.8957 364.094C49.9239 361.864 51.8018 359.501 53.517 357.023C53.562 356.959 53.6192 356.904 53.6855 356.862C53.7517 356.82 53.8256 356.792 53.9029 356.778C53.9802 356.765 54.0593 356.768 54.1357 356.785C54.2121 356.803 54.2842 356.836 54.3478 356.881C54.4128 356.926 54.4683 356.982 54.511 357.048C54.5538 357.114 54.5831 357.188 54.597 357.265C54.611 357.343 54.6095 357.422 54.5925 357.499C54.5755 357.575 54.5434 357.648 54.4981 357.712C52.7538 360.251 50.8373 362.666 48.7619 364.942C48.7017 364.998 48.6306 365.041 48.553 365.068C48.4755 365.096 48.3932 365.107 48.3111 365.101Z" fill="#78AD04"/>
<path d="M123.412 464.26C123.335 464.261 123.259 464.247 123.188 464.218C123.117 464.189 123.052 464.146 122.997 464.092C122.936 464.036 122.887 463.968 122.854 463.892C122.82 463.816 122.803 463.734 122.803 463.65C122.803 463.567 122.82 463.485 122.854 463.409C122.887 463.333 122.936 463.265 122.997 463.209C125.032 460.982 126.913 458.62 128.627 456.138C128.724 456.027 128.859 455.956 129.005 455.938C129.152 455.921 129.3 455.957 129.421 456.041C129.542 456.125 129.628 456.251 129.662 456.394C129.697 456.537 129.678 456.688 129.608 456.818C127.861 459.354 125.944 461.77 123.872 464.048C123.815 464.114 123.744 464.167 123.665 464.203C123.586 464.24 123.5 464.259 123.412 464.26Z" fill="#78AD04"/>
<path d="M142.379 460.681C145.632 464.154 148.743 467.928 150.334 472.462C152.102 477.465 152.102 482.857 151.722 488.089C151.633 489.247 153.436 489.238 153.489 488.089C153.878 482.636 153.878 476.952 151.952 471.747C150.184 467.009 147.02 463.067 143.599 459.373C142.804 458.489 141.54 459.797 142.326 460.637L142.379 460.681Z" fill="#78AD04"/>
<path d="M17.1025 343.553C16.6871 341.714 16.3336 339.858 16.0242 337.993C15.7149 336.128 15.4497 334.325 15.2464 332.69C15.2289 332.227 15.0371 331.788 14.7093 331.46C14.3815 331.132 13.942 330.94 13.4787 330.923C12.5949 330.923 11.5519 331.718 11.711 332.69C12.206 336.659 12.8158 340.645 13.6909 344.516C13.75 344.746 13.8548 344.961 13.9989 345.149C14.1429 345.338 14.3234 345.495 14.5296 345.612C14.7358 345.729 14.9634 345.804 15.1989 345.831C15.4344 345.858 15.673 345.838 15.9005 345.771C16.3539 345.635 16.7375 345.33 16.9713 344.918C17.2051 344.507 17.2711 344.021 17.1556 343.562L17.1025 343.553Z" fill="white"/>
<path d="M12.7719 328.961C13.5822 328.961 14.2391 328.078 14.2391 326.99C14.2391 325.901 13.5822 325.019 12.7719 325.019C11.9616 325.019 11.3047 325.901 11.3047 326.99C11.3047 328.078 11.9616 328.961 12.7719 328.961Z" fill="white"/>
<path d="M475.194 414.429C473.426 422.711 456.226 439.76 450.773 446.292C442.447 456.253 434.094 463.969 422.286 469.343C404.974 477.271 386.227 481.588 367.191 482.03C348.155 482.473 329.228 479.031 311.566 471.915C277.326 458.065 249.502 428.314 239.656 392.713C236.589 381.345 235.102 369.609 235.237 357.836C235.273 350.954 235.802 344.084 236.819 337.278C239.144 347.769 241.883 358.128 246.126 367.991C252.666 382.93 262.411 396.247 274.67 407.001C286.928 417.756 301.401 425.683 317.064 430.223C327.069 433.052 337.437 434.439 347.804 435.306C386.154 438.487 438.257 425.274 475.194 414.429Z" fill="#CEB6B9"/>
<path d="M355.803 37.5725C349.975 35.4066 343.644 34.9752 337.575 36.3304C331.507 37.6856 325.96 40.7693 321.607 45.209C313.767 53.5172 310.957 65.4845 310.506 76.895C310.055 88.3056 311.575 99.8045 310.798 111.233C309.808 125.86 305.053 140.329 306.599 154.904C307.651 164.891 311.611 174.348 313.617 184.168C315.58 193.805 315.658 203.731 313.847 213.397C312.079 222.589 308.703 232.17 311.779 241.008C313.935 247.195 319.07 251.977 324.86 255.044C330.649 258.111 337.101 259.64 343.5 261.063C349.899 262.486 356.996 263.847 363.263 261.505C370.13 258.933 374.753 252.446 378.103 245.932C381.369 239.645 383.933 233.017 385.748 226.169C387.206 220.653 388.188 214.953 390.662 209.809C392.527 205.928 395.188 202.481 397.415 198.787C410.151 177.734 407.968 150.891 401.666 127.107C395.364 103.322 385.359 80.2713 383.592 55.7268" fill="#02263C"/>
<path d="M377.325 177.477C382.417 172.562 386.468 166.671 389.237 160.157C392.005 153.643 393.433 146.638 393.437 139.56C396.381 139.56 398.944 141.478 401.162 143.414C403.381 145.349 405.643 147.471 408.525 148.089C411.406 148.708 414.994 147.002 415.154 144.068C414.632 149.371 414.27 155.319 417.699 159.42C419.988 162.169 423.559 163.53 426.149 165.996C429.03 168.745 430.488 172.651 431.593 176.479C434.881 187.907 435.8 200.342 431.841 211.576C427.881 222.81 418.433 232.462 406.73 234.556" fill="#FFB999"/>
<path d="M583.174 304.929C581.848 303.436 581.06 301.542 580.936 299.55C580.811 297.557 581.356 295.58 582.484 293.933L582.458 294.322C585.878 288.524 592.861 286.058 599.251 284.025L610.874 280.34C612.497 279.709 614.215 279.357 615.956 279.297C618.828 279.394 621.374 281.065 623.76 282.647C630.99 287.508 638.397 292.537 643.205 299.767C643.425 300.02 643.588 300.318 643.682 300.64C643.777 300.961 643.801 301.3 643.753 301.632C643.382 302.825 641.658 302.684 640.492 302.259C636.169 300.696 632.005 298.725 628.056 296.373C624.883 294.481 621.25 292.254 617.75 293.438C614.904 294.402 613.26 297.292 611.652 299.838C610.043 302.383 607.763 305.035 604.749 305.008L583.174 304.929Z" fill="#FFB999"/>
<path d="M558.85 309.039C563.676 303.126 572.108 300.881 579.585 302.339C587.063 303.797 593.621 308.526 598.553 314.342C595.574 316.993 591.182 317.179 587.187 317.188L554.546 317.32" fill="#E2ECFF"/>
<path d="M505.271 322.208C502.179 315.097 500.767 307.37 501.144 299.625C510.053 302.533 519.704 301.155 528.976 299.749L548.986 296.7C559.389 295.118 570.941 293.783 579.612 299.749C574.903 300.214 570.332 301.602 566.16 303.833C569.468 305.416 572.201 307.989 573.982 311.195C574.463 311.888 574.66 312.739 574.53 313.573C574.203 314.819 572.762 315.34 571.463 315.588C560.498 318.006 549.253 318.898 538.044 318.239" fill="#FFB999"/>
<path d="M545.336 580.133C547.493 588.972 542.34 598.464 544.939 607.17C547.184 614.692 554.661 619.5 562.174 621.922C570.747 624.706 579.851 625.245 588.901 625.316C605.739 625.457 623.813 623.548 636.691 612.765C638.185 611.51 639.67 610.025 640.059 608.116C640.942 603.953 636.452 600.798 632.59 598.977C621.732 593.874 610.505 589.596 599.004 586.179C594.496 584.844 589.935 583.633 585.693 581.618C582.599 580.142 579.656 578.233 576.306 577.508C572.957 576.784 568.944 577.57 567.132 580.469C564.198 585.18 568.652 592.109 565.444 596.644C564.2 598.195 562.452 599.261 560.503 599.658C555.28 601.019 551.585 598.102 547.625 594.452" fill="#FE6F5D"/>
<path d="M544.258 588.327C544.631 590.54 545.519 592.634 546.85 594.441C548.181 596.248 549.918 597.717 551.921 598.729C553.903 599.673 556.088 600.112 558.28 600.007C560.473 599.902 562.606 599.257 564.489 598.128C565.267 597.726 565.95 597.164 566.494 596.478C567.038 595.793 567.43 595 567.645 594.151C567.919 592.472 567.132 590.837 566.663 589.21C565.848 586.391 565.95 583.386 566.955 580.628C565.073 578.631 562.297 577.977 559.743 577.093C557.189 576.209 554.44 574.892 553.415 572.32" fill="#FFB999"/>
<path d="M438.735 338.515L439.955 349.024L395.488 359.064C416.48 349.466 440.14 347.654 463.226 347.327C474.982 347.159 486.949 347.327 498.139 350.959C508.833 354.389 518.865 361.354 523.77 371.394L523.903 371.924L530.001 400.985C534.049 420.336 538.103 439.686 542.163 459.037C550.524 498.96 558.956 538.999 562.306 579.647C557.818 584.286 552.079 587.523 545.787 588.963L544.382 589.29C518.008 535.428 492.55 481.136 468.008 426.414L481.513 422.454C444.447 431.686 406.608 437.483 368.478 439.769C360.788 440.237 352.984 440.547 345.498 438.885C324.338 434.315 308.464 413.828 306.882 392.235C305.3 370.643 316.746 349.192 334.096 336.252" fill="#4092C1"/>
<path d="M376.167 196.772C372.475 192.843 368.257 189.443 363.634 186.669C358.658 183.682 352.506 181.428 347.15 183.638C342.245 185.671 339.434 190.903 338.073 196.012C335.645 205.336 336.691 215.225 341.016 223.835C345.373 232.417 352.683 239.073 359.966 245.366C377.054 260.161 394.846 274.109 413.342 287.207C416.328 289.443 419.498 291.424 422.816 293.129C426.688 295.003 431.372 297.469 435.517 298.609C451.842 303.108 467.336 309.958 483.67 314.448C490.546 316.348 497.882 318.946 504.723 316.914C506.685 312.98 507.189 304.69 509.142 300.766C482.68 288.02 452.072 280.685 430.347 260.913C424.796 255.857 420.121 249.935 415.472 244.04C400.19 224.675 385.801 208.854 370.528 189.489" fill="#F9EDED"/>
<path d="M350.995 227.512C353.443 231.074 355.054 235.144 355.706 239.418C355.803 239.755 356.028 240.042 356.334 240.215C356.64 240.389 357.001 240.436 357.341 240.346C357.668 240.236 357.941 240.006 358.105 239.702C358.269 239.399 358.312 239.044 358.225 238.71C357.527 234.21 355.827 229.923 353.249 226.169C353.16 226.018 353.043 225.887 352.904 225.782C352.765 225.677 352.607 225.6 352.438 225.556C352.27 225.512 352.094 225.502 351.921 225.526C351.749 225.55 351.583 225.608 351.432 225.696C351.282 225.784 351.151 225.901 351.045 226.04C350.94 226.179 350.864 226.337 350.82 226.506C350.776 226.675 350.765 226.85 350.789 227.023C350.813 227.196 350.871 227.362 350.959 227.512H350.995Z" fill="#F9EDED"/>
<path d="M394.922 42.0183L409.064 39.0574C413.589 38.1116 418.38 37.1748 422.764 38.642C420.934 35.7252 417.743 33.9752 414.579 32.6141C407.687 29.6397 400.317 27.9245 392.819 27.5496" fill="#02263C"/>
<path opacity="0.4" d="M365.959 187.535L396.619 225.762C401.516 231.861 406.342 237.977 411.309 244.049C415.728 249.458 420.201 254.797 425.106 259.755C430.521 265.348 436.642 270.212 443.313 274.224C443.463 274.291 443.632 274.301 443.788 274.251C443.945 274.201 444.077 274.095 444.159 273.953C444.242 273.811 444.269 273.643 444.235 273.483C444.201 273.322 444.109 273.18 443.976 273.083C431.867 266.013 422.357 255.477 413.554 244.721C403.62 232.585 393.906 220.273 384.095 208.041L366.895 186.59C366.365 185.927 365.428 186.873 365.959 187.535Z" fill="#CEB6B9"/>
<path opacity="0.45" d="M368.751 255.283C388.081 268.929 405.687 285.714 427.519 295.445C433.43 298.124 439.627 300.12 445.991 301.393C446.822 301.561 447.184 300.28 446.345 300.12C422.976 295.56 403.92 280.375 385.5 266.181C380.197 262.088 374.894 258.023 369.423 254.16C368.725 253.665 368.062 254.814 368.751 255.3V255.283Z" fill="#CEB6B9"/>
<path d="M352.259 372.897C365.587 376.114 380.259 370.961 389.195 360.691C391.736 357.775 393.784 354.464 395.258 350.889C395.903 349.316 393.34 348.626 392.695 350.182C387.913 361.804 375.981 369.927 363.59 371.085C360.038 371.428 356.454 371.18 352.984 370.351C351.322 369.953 350.615 372.508 352.277 372.914L352.259 372.897Z" fill="#74CFF7"/>
<path d="M444.374 346.797L409.17 351.914C407.482 352.153 408.198 354.716 409.877 354.468L445.081 349.351C446.76 349.104 446.044 346.549 444.374 346.797Z" fill="#74CFF7"/>
<path d="M174.384 246.824C179.086 251.473 177.124 258.632 175.391 264.13C173.323 270.688 172.315 277.237 173.226 284.096C173.332 284.936 174.666 284.98 174.552 284.096C174.047 280.425 174.047 276.702 174.552 273.03C175.183 269.478 176.087 265.979 177.256 262.566C178.891 257.086 179.802 250.324 175.312 245.887C174.702 245.286 173.765 246.223 174.375 246.824H174.384Z" fill="white"/>
<path d="M468.512 427.695L483.537 423.02C485.155 422.516 484.421 419.953 482.83 420.457L467.805 425.132C466.178 425.636 466.868 428.19 468.512 427.687V427.695Z" fill="#74CFF7"/>
<path d="M479.145 433.564C478.975 433.564 478.808 433.514 478.666 433.422C478.523 433.329 478.41 433.198 478.34 433.043L477.05 430.232C477.002 430.126 476.975 430.012 476.971 429.896C476.967 429.78 476.985 429.665 477.026 429.556C477.067 429.447 477.128 429.348 477.208 429.263C477.287 429.178 477.382 429.109 477.487 429.061C477.593 429.013 477.707 428.986 477.823 428.982C477.939 428.978 478.055 428.997 478.164 429.037C478.272 429.078 478.372 429.139 478.457 429.219C478.542 429.298 478.61 429.393 478.659 429.499L479.94 432.309C480.002 432.443 480.03 432.591 480.02 432.738C480.01 432.886 479.964 433.029 479.885 433.154C479.805 433.278 479.696 433.381 479.567 433.453C479.438 433.525 479.292 433.563 479.145 433.564Z" fill="#74CFF7"/>
<path d="M541.146 569.341C540.976 569.341 540.81 569.292 540.667 569.199C540.525 569.107 540.412 568.975 540.342 568.82L537.761 563.163C537.664 562.95 537.655 562.707 537.737 562.487C537.819 562.267 537.985 562.089 538.199 561.992C538.412 561.895 538.655 561.886 538.875 561.968C539.095 562.05 539.273 562.216 539.37 562.43L541.951 568.086C542 568.192 542.027 568.306 542.032 568.422C542.037 568.539 542.019 568.655 541.978 568.764C541.938 568.873 541.877 568.973 541.798 569.059C541.719 569.144 541.623 569.213 541.518 569.262C541.401 569.313 541.274 569.34 541.146 569.341ZM535.985 558.019C535.816 558.02 535.65 557.972 535.507 557.881C535.365 557.79 535.251 557.66 535.18 557.507L532.591 551.85C532.543 551.744 532.516 551.63 532.512 551.514C532.507 551.398 532.526 551.283 532.567 551.174C532.608 551.065 532.669 550.965 532.748 550.88C532.827 550.796 532.923 550.727 533.028 550.679C533.134 550.631 533.248 550.604 533.364 550.6C533.48 550.596 533.596 550.614 533.704 550.655C533.813 550.696 533.913 550.757 533.998 550.836C534.083 550.916 534.151 551.011 534.199 551.116L536.78 556.773C536.876 556.985 536.885 557.227 536.804 557.445C536.723 557.664 536.559 557.842 536.347 557.94C536.235 557.995 536.11 558.023 535.985 558.019ZM530.814 546.706C530.645 546.706 530.479 546.658 530.337 546.567C530.194 546.477 530.081 546.347 530.01 546.193L527.429 540.537C527.38 540.431 527.352 540.317 527.348 540.201C527.343 540.084 527.361 539.968 527.401 539.859C527.442 539.75 527.503 539.65 527.582 539.564C527.661 539.479 527.756 539.41 527.862 539.361C528.075 539.265 528.318 539.258 528.537 539.341C528.755 539.424 528.932 539.59 529.029 539.803L531.618 545.46C531.714 545.673 531.721 545.916 531.638 546.134C531.556 546.353 531.39 546.53 531.177 546.626C531.063 546.678 530.939 546.705 530.814 546.706ZM525.644 535.393C525.475 535.393 525.309 535.345 525.166 535.254C525.024 535.163 524.91 535.033 524.839 534.88L522.258 529.223C522.161 529.01 522.153 528.767 522.235 528.547C522.317 528.328 522.483 528.15 522.696 528.052C522.909 527.955 523.153 527.946 523.372 528.028C523.592 528.111 523.77 528.276 523.867 528.49L526.448 534.146C526.544 534.359 526.553 534.6 526.472 534.819C526.39 535.037 526.226 535.215 526.015 535.313C525.898 535.365 525.771 535.392 525.644 535.393ZM520.482 524.124C520.313 524.124 520.147 524.076 520.005 523.985C519.862 523.894 519.749 523.764 519.678 523.611L517.053 517.937C516.955 517.723 516.947 517.48 517.029 517.26C517.111 517.041 517.277 516.863 517.49 516.765C517.703 516.668 517.947 516.66 518.166 516.742C518.386 516.824 518.564 516.99 518.661 517.203L521.251 522.86C521.3 522.966 521.327 523.08 521.331 523.197C521.335 523.314 521.316 523.43 521.275 523.54C521.234 523.649 521.172 523.749 521.092 523.834C521.012 523.919 520.916 523.987 520.809 524.035C520.707 524.085 520.596 524.115 520.482 524.124ZM515.285 512.766C515.115 512.766 514.949 512.716 514.806 512.624C514.663 512.531 514.55 512.4 514.481 512.245L511.9 506.588C511.802 506.375 511.794 506.131 511.876 505.912C511.958 505.692 512.124 505.514 512.337 505.417C512.551 505.32 512.794 505.311 513.013 505.393C513.233 505.475 513.411 505.641 513.508 505.854L516.089 511.511C516.138 511.617 516.165 511.732 516.169 511.849C516.173 511.965 516.154 512.082 516.113 512.191C516.072 512.3 516.01 512.4 515.93 512.485C515.85 512.57 515.754 512.639 515.647 512.687C515.533 512.738 515.41 512.766 515.285 512.766ZM510.114 501.453C509.944 501.452 509.778 501.403 509.635 501.311C509.493 501.218 509.38 501.086 509.31 500.931L506.729 495.275C506.632 495.061 506.623 494.818 506.705 494.599C506.787 494.379 506.953 494.201 507.167 494.104C507.38 494.006 507.623 493.998 507.843 494.08C508.063 494.162 508.241 494.328 508.338 494.541L510.919 500.198C510.968 500.303 510.995 500.418 511 500.534C511.005 500.65 510.987 500.766 510.946 500.875C510.906 500.985 510.845 501.085 510.766 501.17C510.687 501.256 510.591 501.325 510.486 501.373C510.377 501.421 510.26 501.448 510.141 501.453H510.114ZM504.953 490.139C504.783 490.139 504.616 490.09 504.474 489.997C504.331 489.905 504.218 489.773 504.148 489.618L501.559 483.961C501.51 483.855 501.483 483.741 501.479 483.624C501.474 483.507 501.493 483.391 501.535 483.282C501.576 483.172 501.638 483.072 501.718 482.987C501.798 482.902 501.894 482.834 502.001 482.786C502.214 482.69 502.457 482.683 502.675 482.766C502.894 482.849 503.071 483.015 503.167 483.228L505.757 488.884C505.853 489.098 505.86 489.34 505.777 489.559C505.694 489.778 505.528 489.955 505.315 490.051C505.211 490.106 505.096 490.136 504.979 490.139H504.953ZM499.782 478.817C499.613 478.818 499.447 478.77 499.305 478.679C499.162 478.588 499.049 478.458 498.978 478.305L496.397 472.648C496.3 472.435 496.291 472.192 496.373 471.972C496.455 471.752 496.621 471.574 496.835 471.477C497.048 471.38 497.291 471.371 497.511 471.453C497.73 471.535 497.908 471.701 498.006 471.914L500.586 477.571C500.683 477.783 500.691 478.025 500.61 478.244C500.529 478.462 500.365 478.64 500.153 478.738C500.045 478.786 499.928 478.813 499.809 478.817H499.782ZM494.612 467.504C494.443 467.505 494.277 467.456 494.134 467.366C493.992 467.275 493.878 467.145 493.807 466.991L491.226 461.335C491.128 461.122 491.118 460.878 491.2 460.657C491.281 460.437 491.446 460.258 491.66 460.159C491.873 460.061 492.117 460.051 492.337 460.132C492.557 460.214 492.737 460.379 492.835 460.592L495.416 466.258C495.512 466.47 495.521 466.712 495.44 466.93C495.358 467.149 495.194 467.326 494.983 467.425C494.874 467.473 494.757 467.5 494.638 467.504H494.612ZM489.45 456.191C489.281 456.191 489.115 456.143 488.973 456.052C488.83 455.961 488.717 455.832 488.646 455.678L486.118 450.013C486.056 449.906 486.018 449.788 486.004 449.666C485.991 449.543 486.004 449.42 486.041 449.302C486.079 449.185 486.14 449.077 486.221 448.985C486.303 448.893 486.403 448.819 486.515 448.767C486.627 448.716 486.748 448.689 486.871 448.687C486.994 448.685 487.116 448.709 487.229 448.757C487.342 448.806 487.444 448.877 487.528 448.967C487.613 449.057 487.677 449.163 487.718 449.279L490.307 454.936C490.356 455.042 490.383 455.157 490.387 455.273C490.392 455.39 490.372 455.506 490.331 455.616C490.29 455.725 490.228 455.825 490.148 455.91C490.068 455.995 489.972 456.064 489.865 456.111C489.743 456.167 489.61 456.194 489.476 456.191H489.45ZM484.35 444.878C484.18 444.877 484.014 444.828 483.871 444.735C483.728 444.643 483.616 444.511 483.546 444.356L480.965 438.699C480.917 438.594 480.89 438.48 480.886 438.364C480.882 438.248 480.901 438.132 480.941 438.023C480.982 437.915 481.043 437.815 481.123 437.73C481.202 437.645 481.297 437.576 481.402 437.528C481.508 437.48 481.622 437.453 481.738 437.449C481.854 437.445 481.97 437.464 482.079 437.505C482.187 437.545 482.287 437.607 482.372 437.686C482.457 437.765 482.525 437.86 482.574 437.966L485.154 443.622C485.203 443.728 485.231 443.842 485.236 443.959C485.241 444.075 485.222 444.191 485.182 444.3C485.142 444.409 485.08 444.51 485.001 444.595C484.922 444.68 484.827 444.749 484.721 444.798C484.604 444.85 484.478 444.877 484.35 444.878Z" fill="#74CFF7"/>
<path d="M545.018 577.809C544.849 577.809 544.683 577.761 544.54 577.67C544.398 577.579 544.284 577.449 544.213 577.296L542.932 574.503C542.859 574.295 542.867 574.068 542.953 573.865C543.039 573.663 543.198 573.5 543.398 573.408C543.598 573.316 543.825 573.303 544.035 573.369C544.244 573.436 544.422 573.579 544.532 573.77L545.822 576.589C545.918 576.802 545.925 577.045 545.842 577.264C545.759 577.482 545.593 577.659 545.38 577.756C545.264 577.798 545.141 577.817 545.018 577.809Z" fill="#74CFF7"/>
<path d="M85.6098 485.977H213.768C213.983 485.974 214.197 486.02 214.392 486.11C214.588 486.199 214.761 486.331 214.9 486.496C215.038 486.661 215.139 486.854 215.194 487.063C215.249 487.271 215.257 487.488 215.218 487.7L191.981 619.023C191.921 619.363 191.742 619.671 191.477 619.892C191.212 620.114 190.877 620.235 190.532 620.234H108.864C108.519 620.233 108.185 620.112 107.92 619.89C107.655 619.669 107.476 619.362 107.414 619.023L84.1603 487.7C84.1227 487.489 84.1321 487.272 84.1877 487.064C84.2433 486.857 84.3438 486.664 84.482 486.499C84.6203 486.335 84.7929 486.203 84.9878 486.113C85.1827 486.022 85.395 485.976 85.6098 485.977Z" fill="#FE6F5D"/>
<path d="M468.37 213.653C472.067 236.683 472.284 260.136 469.016 283.23L468.035 290.151L454.724 323.737L341.838 327.228L345.011 320.529C353.037 303.523 362.909 284.538 360.152 265.942L348.22 185.511C348.123 184.877 348.16 184.228 348.329 183.609C348.498 182.989 348.795 182.412 349.201 181.914C352.928 177.342 357.586 173.616 362.865 170.984C368.144 168.352 373.923 166.875 379.817 166.65L381.152 166.606C382.346 166.554 383.513 166.969 384.405 167.764L420.536 199.962L429.552 171.52C429.715 170.999 430.005 170.525 430.395 170.143C430.785 169.76 431.263 169.479 431.788 169.325C432.312 169.171 432.866 169.149 433.401 169.261C433.936 169.372 434.436 169.614 434.855 169.965L452.532 184.725L457.923 189.206L458.021 189.303C463.05 194.403 466.341 200.961 467.425 208.041L468.37 213.653Z" fill="#F9EDED"/>
<path d="M800 317.32H138.411V346.964H800V317.32Z" fill="#F6C375"/>
<path d="M800 332.142H138.411V346.965H800V332.142Z" fill="#F2A43D"/>
<path opacity="0.4" d="M369.556 189.144L400.217 227.371C405.104 233.469 409.939 239.594 414.906 245.666C419.325 251.076 423.798 256.414 428.703 261.364C434.116 266.962 440.237 271.829 446.91 275.841C447.063 275.929 447.244 275.953 447.414 275.907C447.584 275.862 447.728 275.75 447.816 275.598C447.904 275.446 447.928 275.265 447.882 275.095C447.837 274.925 447.726 274.78 447.573 274.692C435.465 267.621 425.954 257.086 417.151 246.338C407.217 234.203 397.503 221.882 387.692 209.649L370.493 188.172C369.962 187.509 369.025 188.446 369.556 189.109V189.144Z" fill="#CEB6B9"/>
<path opacity="0.45" d="M372.349 256.865C391.678 270.511 409.285 287.287 431.116 297.018C437.029 299.69 443.226 301.683 449.588 302.958C450.419 303.117 450.773 301.844 449.942 301.676C426.573 297.115 407.517 281.931 389.098 267.745C383.794 263.653 378.491 259.578 373.02 255.725C372.322 255.23 371.659 256.379 372.349 256.865Z" fill="#CEB6B9"/>
<path d="M738.034 94.1283L740.835 88.8309L717.895 76.7002L715.094 81.9976L738.034 94.1283Z" fill="#E2ECFF"/>
<path d="M737.746 106.608L738.079 100.625L712.169 99.1854L711.836 105.169L737.746 106.608Z" fill="#E2ECFF"/>
<path d="M714.441 120.964L716.046 126.737L741.048 119.785L739.442 114.011L714.441 120.964Z" fill="#E2ECFF"/>
<path d="M167.401 611.696H106.416C106.298 611.696 106.186 611.649 106.103 611.566C106.02 611.483 105.974 611.371 105.974 611.254C105.974 611.136 106.02 611.024 106.103 610.941C106.186 610.858 106.298 610.812 106.416 610.812H167.401C167.518 610.812 167.631 610.858 167.714 610.941C167.797 611.024 167.843 611.136 167.843 611.254C167.843 611.371 167.797 611.483 167.714 611.566C167.631 611.649 167.518 611.696 167.401 611.696Z" fill="#E23C30"/>
<path d="M161.913 605.314H105.267C105.149 605.314 105.037 605.268 104.954 605.185C104.871 605.102 104.825 604.989 104.825 604.872C104.825 604.755 104.871 604.643 104.954 604.56C105.037 604.477 105.149 604.43 105.267 604.43H161.913C162.03 604.43 162.142 604.477 162.225 604.56C162.308 604.643 162.355 604.755 162.355 604.872C162.355 604.989 162.308 605.102 162.225 605.185C162.142 605.268 162.03 605.314 161.913 605.314Z" fill="#E23C30"/>
<path d="M179.466 283.584H170.229V297.557H179.466V283.584Z" fill="white"/>
<path d="M417.567 159.093C405.67 153.94 398.122 146.914 393.526 141.08C393.526 141.001 393.526 140.93 393.526 140.85C396.478 143.016 399.474 145.013 402.435 146.808C404.715 148.204 407.164 149.548 409.842 149.671C411.447 149.719 413.04 149.386 414.491 148.699L414.809 148.911C414.729 152.615 415.26 156.247 417.522 159.067L417.567 159.093Z" fill="#FC8C60"/>
<path d="M415.03 20.8766C418.764 19.0902 422.86 18.1896 426.999 18.2448C431.138 18.2999 435.209 19.3095 438.894 21.1947C433.679 21.3273 428.288 22.5824 424.248 25.8438" fill="#02263C"/>
<path d="M365.154 100.335C365.923 120.469 385.032 137.218 402.408 147.409C404.724 148.761 407.19 150.06 409.868 150.149C413.978 150.264 417.567 147.497 420.563 144.66C433.299 132.693 439.398 117.075 442.597 99.8928C445.797 82.7108 442.155 64.0262 431.319 50.3176C426.67 44.4312 420.598 39.4197 413.395 37.3515C408.401 35.9109 403.107 35.9374 397.919 36.3439C391.291 36.8568 384.722 37.9541 378.288 39.623C373.162 40.9576 368.009 42.7165 363.952 46.1193C359.895 49.5222 357.076 54.8606 358.03 60.1019C358.985 65.3431 364.403 69.674 369.52 68.3128" fill="#FFB999"/>
<path d="M419.917 116.394C421.332 116.35 423.179 116.182 424.337 115.228C425.751 114.043 424.717 112.497 424.045 111.224C422.394 108.034 421.402 104.544 421.128 100.962C421.058 100.078 419.705 100.078 419.776 100.962C419.993 103.937 420.682 106.857 421.818 109.615C422.092 110.269 422.383 110.923 422.702 111.56C423.157 112.189 423.495 112.896 423.7 113.646C423.753 114.901 420.739 115.016 419.944 115.042C419.778 115.061 419.625 115.14 419.514 115.265C419.402 115.39 419.341 115.551 419.341 115.718C419.341 115.885 419.402 116.046 419.514 116.171C419.625 116.296 419.778 116.375 419.944 116.394H419.917Z" fill="#EA754B"/>
<path d="M414.279 95.3828C414.325 92.2005 412.551 89.5945 410.315 89.5621C408.08 89.5297 406.23 92.0832 406.184 95.2655C406.138 98.4478 407.913 101.054 410.148 101.086C412.384 101.119 414.233 98.5651 414.279 95.3828Z" fill="#021B28"/>
<path d="M434.521 95.672C434.568 92.4897 432.793 89.8836 430.557 89.8512C428.322 89.8189 426.472 92.3724 426.426 95.5547C426.38 98.737 428.155 101.343 430.39 101.375C432.626 101.408 434.475 98.8543 434.521 95.672Z" fill="#021B28"/>
<path d="M445.204 88.4823C442.916 86.0495 440.018 84.2744 436.811 83.3417C433.605 82.409 430.206 82.3529 426.97 83.1792L426.484 81.2613C430.067 80.3458 433.829 80.4108 437.378 81.4496C440.927 82.4884 444.131 84.4626 446.654 87.1654L445.204 88.4823Z" fill="#021B28"/>
<path d="M395.426 87.2803L394.047 85.8485C396.105 83.8678 398.544 82.3253 401.215 81.3143C405.471 79.7328 410.128 79.59 414.473 80.9077L413.899 82.808C410.701 81.8311 407.299 81.7315 404.049 82.5199C400.799 83.3082 397.821 84.9554 395.426 87.2892V87.2803Z" fill="#021B28"/>
<path d="M432.141 92.0266C432.74 92.2846 433.385 92.4177 434.037 92.4177C434.689 92.4177 435.334 92.2846 435.933 92.0266C436.74 91.7198 437.482 91.2607 438.116 90.6743C438.144 91.0563 438.027 91.4348 437.789 91.7349C436.563 93.6093 434.737 95.0117 432.61 95.7122" fill="#021B28"/>
<path d="M430.02 91.3283C430.666 91.4073 431.322 91.3532 431.947 91.1693C432.572 90.9853 433.152 90.6755 433.653 90.2588C434.336 89.7312 434.914 89.0807 435.358 88.3409C435.5 88.6925 435.5 89.0853 435.358 89.4369C434.726 91.5874 433.379 93.458 431.54 94.74" fill="#021B28"/>
<path d="M407.455 91.3283C406.834 91.5259 406.18 91.5956 405.531 91.5333C404.882 91.471 404.253 91.278 403.681 90.966C402.907 90.5797 402.214 90.0487 401.639 89.4016C401.576 89.7788 401.655 90.1661 401.86 90.4887C402.895 92.4765 404.575 94.0536 406.624 94.961" fill="#021B28"/>
<path d="M409.656 90.8422C409.001 90.8569 408.35 90.7384 407.742 90.4938C407.134 90.2491 406.583 89.8836 406.121 89.4192C405.493 88.8247 404.983 88.117 404.618 87.3333C404.445 87.6721 404.407 88.0637 404.512 88.4293C404.93 90.6331 406.086 92.6285 407.791 94.0859" fill="#021B28"/>
<path d="M428.668 119.886C428.73 125.436 423.886 131.11 417.991 131.172C412.096 131.234 407.385 125.675 407.305 120.124C407.305 119.992 407.305 119.85 407.305 119.718C410.637 121.338 414.301 122.159 418.006 122.118C421.711 122.077 425.355 121.173 428.65 119.479C428.668 119.612 428.668 119.753 428.668 119.886Z" fill="white"/>
<path d="M437.683 68.4101C437.525 68.4063 437.368 68.3856 437.214 68.3482C432.088 66.9341 429.26 62.2496 428.04 59.5804C427.844 59.1538 427.826 58.6669 427.989 58.2268C428.153 57.7867 428.484 57.4295 428.911 57.2338C429.337 57.0381 429.824 57.0198 430.264 57.1831C430.704 57.3464 431.062 57.6778 431.257 58.1044C432.901 61.6928 435.411 64.1853 438.151 64.9366C438.565 65.049 438.924 65.3079 439.161 65.6652C439.398 66.0225 439.497 66.4537 439.44 66.8786C439.382 67.3035 439.173 67.6931 438.849 67.9749C438.526 68.2566 438.112 68.4113 437.683 68.4101Z" fill="#FC8C60"/>
<path d="M369.715 82.1274C369.483 82.1442 369.25 82.1152 369.029 82.0419C368.808 81.9686 368.604 81.8525 368.427 81.7003C368.072 81.3928 367.853 80.9567 367.819 80.4879C367.785 80.019 367.939 79.5559 368.246 79.2004C368.554 78.8448 368.99 78.626 369.459 78.592L373.622 77.9821C382.708 76.5945 393.261 74.4467 402.524 69.1436C411.008 64.3001 417.726 55.276 420.501 45.0145C420.646 44.5943 420.945 44.2443 421.336 44.0342C421.728 43.824 422.185 43.7693 422.615 43.8808C423.045 43.9923 423.418 44.2618 423.658 44.6358C423.899 45.0097 423.99 45.4605 423.913 45.8984C420.899 57.0526 413.563 66.8721 404.282 72.1841C394.507 77.77 383.565 79.9973 374.143 81.438L369.971 82.0479L369.715 82.1274Z" fill="#FC8C60"/>
<path d="M351.534 81.7032C366.065 80.9784 389.54 78.4418 401.914 70.7169C413.059 63.7168 418.265 54.4275 421.8 45.2532C425.336 36.0788 414.614 20.7793 406.492 15.2022C403.08 12.8689 398.944 11.8082 394.843 11.2956C374.046 8.75012 352.241 20.6556 343.182 39.5435" fill="#02263C"/>
<path d="M364.482 111.462C370.979 111.462 376.246 105.353 376.246 97.8158C376.246 90.2789 370.979 84.1691 364.482 84.1691C357.985 84.1691 352.718 90.2789 352.718 97.8158C352.718 105.353 357.985 111.462 364.482 111.462Z" fill="#FFB999"/>
<path d="M360.752 103.331C360.66 103.332 360.57 103.303 360.495 103.249C360.421 103.195 360.365 103.118 360.337 103.031C359.716 101.144 359.596 99.129 359.986 97.1819C360.376 95.2347 361.265 93.422 362.564 91.9205C362.647 91.8395 362.758 91.7942 362.874 91.7942C362.989 91.7942 363.1 91.8395 363.183 91.9205C363.224 91.9608 363.257 92.009 363.279 92.0621C363.301 92.1152 363.313 92.1722 363.313 92.2299C363.313 92.2875 363.301 92.3445 363.279 92.3976C363.257 92.4508 363.224 92.4989 363.183 92.5392C361.983 93.9246 361.163 95.5973 360.802 97.3941C360.441 99.1909 360.552 101.051 361.124 102.792C361.143 102.846 361.151 102.904 361.148 102.962C361.145 103.02 361.13 103.076 361.104 103.128C361.079 103.18 361.043 103.226 360.999 103.264C360.955 103.302 360.905 103.331 360.85 103.349C360.817 103.347 360.784 103.341 360.752 103.331Z" fill="#EA754B"/>
<path d="M364.642 99.3537C364.535 99.3532 364.432 99.3157 364.35 99.2476C363.113 98.2047 361.619 97.5595 360.753 97.6744C360.637 97.6894 360.519 97.6579 360.427 97.5866C360.334 97.5154 360.273 97.4103 360.258 97.2943C360.249 97.2367 360.252 97.1779 360.267 97.1215C360.281 97.0651 360.307 97.0122 360.343 96.966C360.378 96.9198 360.422 96.8812 360.473 96.8526C360.524 96.8239 360.58 96.8058 360.638 96.7993C362.034 96.6049 363.811 97.6832 364.925 98.567C365.014 98.644 365.069 98.7528 365.079 98.87C365.089 98.9873 365.052 99.1038 364.978 99.1946C364.937 99.2444 364.886 99.2845 364.828 99.312C364.769 99.3395 364.706 99.3537 364.642 99.3537Z" fill="#EA754B"/>
<path d="M427.651 56.5664C427.296 56.5629 426.949 56.4522 426.658 56.2488C426.366 56.0454 426.142 55.7587 426.016 55.4263L425.583 54.2773C424.726 51.9919 423.573 49.8287 422.154 47.8428C422.019 47.6536 421.923 47.4398 421.871 47.2135C421.819 46.9872 421.812 46.7528 421.851 46.5238C421.889 46.2948 421.973 46.0757 422.096 45.8789C422.219 45.6821 422.38 45.5115 422.569 45.3769C422.758 45.2423 422.972 45.1462 423.199 45.0942C423.425 45.0422 423.659 45.0353 423.888 45.0739C424.117 45.1125 424.336 45.1958 424.533 45.319C424.73 45.4423 424.9 45.6031 425.035 45.7923C426.624 48.0276 427.913 50.4612 428.871 53.031L429.304 54.18C429.404 54.4472 429.438 54.7345 429.402 55.0175C429.367 55.3005 429.264 55.5708 429.101 55.8052C428.939 56.0397 428.722 56.2313 428.47 56.3639C428.217 56.4965 427.936 56.5659 427.651 56.5664Z" fill="#FC8C60"/>
<path d="M414.756 37.9349C419.337 40.9502 423.08 45.0764 425.636 49.9287C427.607 53.6851 428.836 57.8304 431.205 61.3569C433.573 64.8835 437.551 67.7914 441.749 67.2169C447.45 66.4479 450.481 59.8809 450.702 54.1359C451.1 44.0688 445.947 34.1785 438.099 27.8501C430.25 21.5218 419.988 18.5609 409.913 18.6669" fill="#02263C"/>
<path d="M408.153 20.3904C411.424 17.8543 415.236 16.1067 419.292 15.2835C423.348 14.4604 427.539 14.5838 431.54 15.6441C426.476 16.8815 421.499 19.2414 418.212 23.2983" fill="#02263C"/>
<path d="M782.464 73.5364H781.581V301.685H782.464V73.5364Z" fill="#99B0D1"/>
<path d="M777.258 73.5364H776.375V301.685H777.258V73.5364Z" fill="#99B0D1"/>
</g>
<defs>
<clipPath id="clip0_20_530">
<rect width="800" height="625.325" fill="white"/>
</clipPath>
</defs>
</svg>
